<svg width="14" height="16" viewBox="0 0 14 16" fill="none" xmlns="http://www.w3.org/2000/svg">
<path fill-rule="evenodd" clip-rule="evenodd" d="M7.53307 7.5648V4.8C7.53307 4.5056 7.29467 4.26667 6.99974 4.26667C6.70481 4.26667 6.46641 4.5056 6.46641 4.8V7.5648C5.84667 7.78506 5.39974 8.37067 5.39974 9.06667C5.39974 9.9504 6.11601 10.6667 6.99974 10.6667C7.88347 10.6667 8.59974 9.9504 8.59974 9.06667C8.59974 8.37067 8.15281 7.78506 7.53307 7.5648ZM6.99974 14.9333C3.75974 14.9333 1.13307 12.3067 1.13307 9.06667C1.13307 5.82667 3.75974 3.2 6.99974 3.2C10.2397 3.2 12.8664 5.82667 12.8664 9.06667C12.8664 12.3067 10.2397 14.9333 6.99974 14.9333ZM7.52773 2.15999C7.52827 2.15039 7.53307 2.14293 7.53307 2.13333V1.06667H9.66641C9.96134 1.06667 10.1997 0.828267 10.1997 0.533333C10.1997 0.2384 9.96134 0 9.66641 0H4.33307C4.03814 0 3.79974 0.2384 3.79974 0.533333C3.79974 0.828267 4.03814 1.06667 4.33307 1.06667H6.46641V2.13333C6.46641 2.14293 6.47121 2.15039 6.47174 2.15999C2.89041 2.43093 0.0664062 5.41547 0.0664062 9.06667C0.0664062 12.896 3.17041 16 6.99974 16C10.8291 16 13.9331 12.896 13.9331 9.06667C13.9331 5.41547 11.1091 2.43093 7.52773 2.15999Z" fill="#1C325E"/>
</svg>
