<svg width="20" height="20" viewBox="0 0 20 20" fill="none" xmlns="http://www.w3.org/2000/svg">
<path d="M7.57502 3.42498L9.64645 1.35355C9.84171 1.15829 10.1583 1.15829 10.3536 1.35355L12.425 3.42498C12.5188 3.51875 12.6459 3.57143 12.7785 3.57143H15.9286C16.2047 3.57143 16.4286 3.79529 16.4286 4.07143V7.22146C16.4286 7.35407 16.4812 7.48125 16.575 7.57502L18.6464 9.64645C18.8417 9.84171 18.8417 10.1583 18.6464 10.3536L16.575 12.425C16.4812 12.5188 16.4286 12.6459 16.4286 12.7785V15.9286C16.4286 16.2047 16.2047 16.4286 15.9286 16.4286H12.7785C12.6459 16.4286 12.5188 16.4812 12.425 16.575L10.3536 18.6464C10.1583 18.8417 9.84171 18.8417 9.64645 18.6464L7.57502 16.575C7.48125 16.4812 7.35407 16.4286 7.22146 16.4286H4.07143C3.79529 16.4286 3.57143 16.2047 3.57143 15.9286V12.7785C3.57143 12.6459 3.51875 12.5188 3.42498 12.425L1.35355 10.3536C1.15829 10.1583 1.15829 9.84171 1.35355 9.64645L3.42498 7.57502C3.51875 7.48125 3.57143 7.35407 3.57143 7.22146V4.07143C3.57143 3.79529 3.79529 3.57143 4.07143 3.57143H7.22146C7.35407 3.57143 7.48125 3.51875 7.57502 3.42498Z" fill="#BADAFF" stroke="#BADAFF"/>
<path d="M9.49979 14.2913V14.2859M9.49979 12.6663C9.49979 10.2288 11.6665 10.7705 11.6665 8.87467C11.6665 7.67806 10.6964 6.70801 9.49979 6.70801C8.49018 6.70801 7.64189 7.39851 7.40137 8.33301" stroke="#00A7E1" stroke-linecap="round" stroke-linejoin="round"/>
</svg>
