<svg width="16" height="16" viewBox="0 0 16 16" fill="none" xmlns="http://www.w3.org/2000/svg">
<path d="M1.60254 1.60254V14.3975H14.3975V1.60254H1.60254ZM13.8645 2.13554V4.53454H2.13604V2.13554H13.8645ZM2.13554 13.8645V5.06804H13.864V13.8645H2.13554Z" fill="#A4A4A4"/>
<path d="M5.60059 2.93555H6.40059V3.73505H5.60059V2.93555Z" fill="#A4A4A4"/>
<path d="M9.59961 2.93555H10.3991V3.73505H9.59961V2.93555Z" fill="#A4A4A4"/>
<path d="M6.17423 6.96441C6.07873 7.61291 5.77023 7.62441 5.14923 7.64691L5.05273 7.65041V8.10241H6.10473V11.0594H6.66273V6.87891H6.18623L6.17423 6.96441Z" fill="#A4A4A4"/>
<path d="M9.32071 8.22069C9.07271 8.22069 8.81821 8.30169 8.61671 8.43719L8.80671 7.45969H10.5642V6.92969H8.39071L7.96671 9.19369H8.44921L8.47871 9.14769C8.64721 8.88519 8.95471 8.72169 9.28171 8.72169C9.81371 8.72169 10.1997 9.11519 10.1997 9.65669C10.1997 10.1467 9.89221 10.6427 9.30471 10.6427C8.80271 10.6427 8.44171 10.3037 8.42671 9.81819L8.42371 9.72119H7.86621L7.86871 9.82369C7.88671 10.6137 8.45221 11.1442 9.27671 11.1442C10.1077 11.1442 10.7582 10.5082 10.7582 9.69669C10.7582 8.81369 10.1812 8.22019 9.32221 8.22019L9.32071 8.22069Z" fill="#A4A4A4"/>
</svg>
