<svg width="70" height="70" viewBox="0 0 70 70" fill="none" xmlns="http://www.w3.org/2000/svg">
<circle cx="35" cy="35" r="35" fill="#E9F3FF"/>
<path d="M48.8464 36.3845L44.5541 34.9999L48.8464 33.6153C49.1233 33.5461 49.2618 33.3384 49.331 33.0614L50.0926 26.8307C50.1618 26.5538 49.9541 26.2076 49.6772 26.1384L43.8618 23.6461C43.5849 23.5076 43.308 23.5768 43.1003 23.7845L39.7772 26.8307L40.7464 22.3999C40.8156 22.123 40.6772 21.8461 40.4695 21.7076L35.4849 17.8999C35.208 17.6922 34.931 17.6922 34.6541 17.8999L29.531 21.7076C29.3233 21.8461 29.1849 22.123 29.2541 22.3999L30.2233 26.8307L26.9003 23.7845C26.6926 23.5768 26.4156 23.5768 26.1387 23.6461L20.3926 25.9999C20.1156 26.1384 19.9079 26.4153 19.9772 26.6922L20.7387 32.9922C20.7387 33.2691 20.9464 33.4768 21.2233 33.5461L25.5156 34.9307L21.1541 36.3845C20.8772 36.4538 20.7387 36.6614 20.6695 36.9384L19.9079 43.1691C19.8387 43.4461 20.0464 43.7922 20.3233 43.8614L26.1387 46.3538C26.4156 46.4922 26.6926 46.423 26.9003 46.2153L30.2233 43.1691L29.2541 47.5999C29.1849 47.8768 29.3233 48.1538 29.531 48.2922L34.5156 52.0999C34.6541 52.1691 34.7926 52.2384 34.931 52.2384C35.0695 52.2384 35.2079 52.1691 35.3464 52.0999L40.4695 48.2922C40.6772 48.1538 40.8156 47.8768 40.7464 47.5999L39.7772 43.1691L43.1003 46.2153C43.308 46.423 43.5849 46.423 43.8618 46.3538L49.6772 43.9307C49.9541 43.7922 50.1618 43.5153 50.0926 43.2384L49.331 36.9384C49.2618 36.6614 49.1233 36.4538 48.8464 36.3845ZM43.7233 44.9691L39.0849 40.7461C38.8772 40.5384 38.531 40.5384 38.2541 40.6768C37.9772 40.8153 37.8387 41.1614 37.9079 41.4384L39.2233 47.5307L34.8618 50.7845L30.6387 47.5307L31.9541 41.4384C32.0233 41.1614 31.8849 40.8153 31.608 40.6768C31.331 40.5384 30.9849 40.5384 30.7772 40.7461L26.1387 44.9691L21.1541 42.823L21.8464 37.5614L27.8003 35.6922C28.0772 35.623 28.2849 35.3461 28.2849 34.9999C28.2849 34.723 28.0772 34.4461 27.8003 34.3076L21.8464 32.4384L21.2233 27.1076L26.1387 25.0307L30.7772 29.2538C30.9849 29.4614 31.331 29.4614 31.608 29.323C31.8849 29.1845 32.0233 28.8384 31.9541 28.5614L30.6387 22.4691L34.931 19.2153L39.1541 22.4691L37.8387 28.5614C37.7695 28.8384 37.9079 29.1845 38.1849 29.323C38.4618 29.4614 38.8079 29.4614 39.0156 29.2538L43.6541 25.0307L48.6387 27.1768L47.9464 32.4384L41.9926 34.3076C41.7156 34.3768 41.508 34.6538 41.508 34.9999C41.508 35.2768 41.7156 35.5538 41.9926 35.6922L47.9464 37.5614L48.5695 42.8922L43.7233 44.9691Z" fill="#00A7E1"/>
<path d="M42.5459 38.3227L36.3844 34.7227L42.5459 31.1919C42.8921 30.9842 42.9613 30.5688 42.8228 30.2227C42.6151 29.8765 42.1998 29.8073 41.8536 29.9457L35.6921 33.5457V26.415C35.6921 25.9996 35.4151 25.7227 34.9998 25.7227C34.5844 25.7227 34.3075 25.9996 34.3075 26.415V33.5457L28.1459 30.015C27.7998 29.8073 27.3844 29.9457 27.1767 30.2919C26.969 30.638 27.1075 31.0534 27.4536 31.2611L33.6151 34.7919L27.4536 38.3227C27.1075 38.5303 27.0382 38.9457 27.1767 39.2919C27.3844 39.638 27.7998 39.7073 28.1459 39.5688L34.3075 36.038V43.1688C34.3075 43.5842 34.5844 43.8611 34.9998 43.8611C35.4151 43.8611 35.6921 43.5842 35.6921 43.1688V35.9688L41.8536 39.4996C42.1998 39.7073 42.6151 39.5688 42.8228 39.2227C42.9613 38.9457 42.8921 38.5303 42.5459 38.3227Z" fill="#8CC1FF"/>
</svg>
