<svg width="24" height="24" viewBox="0 0 24 24" fill="none" xmlns="http://www.w3.org/2000/svg">
<path d="M20.06 7.855L14.645 2.44C14.364 2.15862 13.9827 2.00035 13.585 2H5C4.60217 2 4.22064 2.15804 3.93934 2.43934C3.65804 2.72064 3.5 3.10218 3.5 3.5V6C3.5 6.13261 3.55268 6.25979 3.64645 6.35355C3.74021 6.44732 3.86739 6.5 4 6.5C4.13261 6.5 4.25978 6.44732 4.35355 6.35355C4.44732 6.25979 4.5 6.13261 4.5 6V3.5C4.5 3.36739 4.55268 3.24021 4.64645 3.14645C4.74021 3.05268 4.86739 3 5 3H13.5V7.5C13.5 7.89782 13.658 8.27936 13.9393 8.56066C14.2206 8.84197 14.6022 9 15 9H19.5V20.5C19.5 20.6326 19.4473 20.7598 19.3536 20.8536C19.2598 20.9473 19.1326 21 19 21H5C4.86739 21 4.74021 20.9473 4.64645 20.8536C4.55268 20.7598 4.5 20.6326 4.5 20.5V8C4.5 7.86739 4.44732 7.74021 4.35355 7.64645C4.25978 7.55268 4.13261 7.5 4 7.5C3.86739 7.5 3.74021 7.55268 3.64645 7.64645C3.55268 7.74021 3.5 7.86739 3.5 8V20.5C3.5 20.8978 3.65804 21.2794 3.93934 21.5607C4.22064 21.842 4.60217 22 5 22H19C19.3978 22 19.7794 21.842 20.0607 21.5607C20.342 21.2794 20.5 20.8978 20.5 20.5V8.915C20.4996 8.51731 20.3414 8.13603 20.06 7.855ZM14.5 7.5V3.705L18.795 8H15C14.8674 8 14.7402 7.94732 14.6464 7.85355C14.5527 7.75979 14.5 7.63261 14.5 7.5Z" fill="#848484"/>
<path d="M11.6863 15.0273H10.9567L10.6367 8.46094H12.0063L11.6863 15.0273ZM10.5215 16.9089C10.5215 16.5932 10.5983 16.3713 10.7519 16.2433C10.9055 16.1153 11.0932 16.0513 11.3151 16.0513C11.5284 16.0513 11.7119 16.1153 11.8655 16.2433C12.0276 16.3713 12.1087 16.5932 12.1087 16.9089C12.1087 17.2161 12.0276 17.438 11.8655 17.5745C11.7119 17.7111 11.5284 17.7793 11.3151 17.7793C11.0932 17.7793 10.9055 17.7111 10.7519 17.5745C10.5983 17.438 10.5215 17.2161 10.5215 16.9089Z" fill="#CDCDCD"/>
</svg>
