<svg width="24" height="24" viewBox="0 0 24 24" fill="none" xmlns="http://www.w3.org/2000/svg">
<path d="M21.0999 12.5286C20.3457 11.7743 19.1185 11.7743 18.3643 12.5286L16.0889 14.8039C16.0046 14.8882 15.8954 14.9398 15.7777 14.9511C15.4861 14.2437 14.7905 13.7567 13.9899 13.7567H11.79C11.0836 13.1478 10.1911 12.815 9.25129 12.815C8.08926 12.815 6.99988 13.3264 6.25645 14.2198L2.87395 17.6023C2.5252 17.9511 2.33301 18.4146 2.33301 18.9078C2.33301 19.4009 2.5252 19.8645 2.87395 20.2132L4.83004 22.1693C5.17738 22.5167 5.64754 22.7103 6.13551 22.7103C6.17676 22.7103 6.21848 22.7089 6.2602 22.7061C6.79223 22.67 7.28207 22.4061 7.60504 21.9823L9.30613 19.7478C9.33426 19.7107 9.37879 19.6887 9.4252 19.6887H15.8218C16.3721 19.6887 16.8891 19.4745 17.2786 19.0854L21.0999 15.2637C21.465 14.8986 21.6666 14.4125 21.6666 13.8959C21.6666 13.3793 21.4655 12.8942 21.0999 12.5286ZM20.2711 14.4354L16.4499 18.2567C16.2821 18.4245 16.0589 18.5168 15.8218 18.5168H9.4252C9.01504 18.5168 8.62223 18.7118 8.37379 19.0381L6.67316 21.2726C6.55363 21.4296 6.37879 21.5239 6.18191 21.537C5.98457 21.5496 5.79895 21.4807 5.65926 21.3411L3.70316 19.385C3.4402 19.122 3.4402 18.694 3.70316 18.4311L7.09691 15.0373C7.11332 15.0214 7.12926 15.0045 7.14379 14.9867C7.66363 14.3515 8.43191 13.9873 9.25176 13.9873C9.9666 13.9873 10.6416 14.2625 11.1535 14.7621C11.2627 14.869 11.4099 14.929 11.5627 14.929H13.9904C14.3789 14.929 14.7043 15.2196 14.7479 15.605C14.7497 15.62 14.7521 15.635 14.7549 15.6495C14.7539 15.6631 14.753 15.6771 14.753 15.6912C14.753 16.1117 14.4108 16.4534 13.9908 16.4534H9.79785C9.47441 16.4534 9.21192 16.7159 9.21192 17.0393C9.21192 17.3628 9.47441 17.6253 9.79785 17.6253H13.9908C14.9105 17.6253 15.6816 16.9798 15.8766 16.1187C16.2699 16.0845 16.6355 15.9153 16.9182 15.6326L19.1935 13.3573C19.4907 13.0601 19.9744 13.0601 20.2716 13.3573C20.4155 13.5012 20.4947 13.6929 20.4947 13.8964C20.4947 14.0998 20.415 14.2915 20.2711 14.4354Z" fill="#CDCDCD"/>
<path d="M7.14457 10.3603H9.59473C9.66457 11.4009 10.5327 12.2259 11.5907 12.2259H15.6458C16.7038 12.2259 17.5719 11.4005 17.6418 10.3603H20.0914C20.9244 10.3603 21.6018 9.6825 21.6018 8.84953V8.29125C21.6018 7.53 21.3046 6.81563 20.7641 6.27938C20.6136 6.12984 20.4486 6 20.2738 5.88984C20.526 5.56594 20.6769 5.15953 20.6769 4.71844C20.6769 3.66516 19.82 2.80828 18.7672 2.80828C17.7144 2.80828 16.8571 3.66516 16.8571 4.71844C16.8571 5.16188 17.0094 5.57016 17.2639 5.895C16.978 6.07688 16.7258 6.30891 16.52 6.57844C16.4985 6.55641 16.4779 6.53344 16.4558 6.51141C16.1516 6.20953 15.8075 5.96297 15.4363 5.77453C15.9257 5.29969 16.2304 4.63547 16.2304 3.90141C16.2304 2.46094 15.0585 1.28906 13.618 1.28906C12.1775 1.28906 11.0057 2.46094 11.0057 3.90141C11.0057 4.63875 11.3132 5.30484 11.8058 5.78016C11.4046 5.98594 11.0418 6.25734 10.731 6.58078C10.6508 6.47531 10.5627 6.37406 10.4666 6.27891C10.3161 6.12937 10.1511 6 9.97582 5.88938C10.228 5.56547 10.3789 5.15906 10.3789 4.7175C10.3789 3.66422 9.52207 2.80734 8.46926 2.80734C7.41645 2.80734 6.5591 3.66422 6.5591 4.7175C6.5591 5.16094 6.71145 5.56922 6.96598 5.89406C6.16723 6.40219 5.63379 7.30078 5.63379 8.31938V8.84906C5.63379 9.68203 6.3116 10.3603 7.14457 10.3603ZM18.7668 3.98016C19.1736 3.98016 19.5046 4.31109 19.5046 4.71844C19.5046 5.12578 19.1741 5.45578 18.7677 5.45625H18.7654C18.3589 5.45531 18.0285 5.12484 18.0285 4.71844C18.0285 4.31203 18.3594 3.98016 18.7668 3.98016ZM18.7541 6.62813H18.7644H18.7672H18.7686C19.2102 6.62813 19.6255 6.79969 19.9391 7.11094C20.256 7.42547 20.4304 7.845 20.4304 8.29125V8.84953C20.4304 9.03656 20.2789 9.18844 20.0919 9.18844H17.6427C17.6183 8.63906 17.4847 8.10984 17.2518 7.62563C17.5114 7.0425 18.0866 6.63328 18.7541 6.62813ZM13.618 2.46094C14.4125 2.46094 15.0585 3.10734 15.0585 3.90141C15.0585 4.69547 14.4121 5.34188 13.618 5.34188C12.8239 5.34188 12.1775 4.69547 12.1775 3.90141C12.1775 3.10734 12.8239 2.46094 13.618 2.46094ZM13.5964 6.51375C13.6039 6.51375 13.611 6.51375 13.6185 6.51375C14.3779 6.51375 15.0918 6.80766 15.6308 7.34297C16.175 7.88344 16.475 8.60344 16.475 9.37031V10.2248C16.475 10.6819 16.1033 11.0541 15.6458 11.0541H11.5907C11.1336 11.0541 10.7614 10.6823 10.7614 10.2248V9.41344C10.7614 7.82625 12.0332 6.525 13.5964 6.51375ZM8.46926 3.97969C8.87613 3.97969 9.20707 4.31063 9.20707 4.71797C9.20707 5.12531 8.87613 5.45578 8.46926 5.45578C8.06238 5.45578 7.73098 5.12484 7.73098 4.71797C7.73098 4.31109 8.06191 3.97969 8.46926 3.97969ZM6.80613 8.31938C6.80613 7.39313 7.54629 6.63469 8.4566 6.62766H8.46691H8.46973H8.47113C8.9127 6.62766 9.32801 6.79922 9.6416 7.11047C9.79535 7.26281 9.91488 7.44047 9.99832 7.63359C9.76816 8.10844 9.62707 8.63391 9.5966 9.18797H7.14504C6.95848 9.18797 6.8066 9.03609 6.8066 8.84906L6.80613 8.31938Z" fill="#858585"/>
</svg>
