<svg width="148" height="148" viewBox="0 0 148 148" fill="none" xmlns="http://www.w3.org/2000/svg">
<path d="M148 113.19H0V113.264H148V113.19Z" fill="#ECECEC"/>
<path d="M133.171 117.953H123.367V118.027H133.171V117.953Z" fill="#ECECEC"/>
<path d="M98.041 118.759H95.4688V118.833H98.041V118.759Z" fill="#ECECEC"/>
<path d="M123.071 115.206H117.391V115.28H123.071V115.206Z" fill="#ECECEC"/>
<path d="M28.3126 115.704H15.5283V115.778H28.3126V115.704Z" fill="#ECECEC"/>
<path d="M32.8239 115.704H30.9502V115.778H32.8239V115.704Z" fill="#ECECEC"/>
<path d="M66.6443 116.953H38.915V117.027H66.6443V116.953Z" fill="#ECECEC"/>
<path d="M70.1524 99.9891H12.9977C12.55 99.9883 12.1209 99.8099 11.8045 99.493C11.4882 99.1761 11.3105 98.7467 11.3105 98.2989V17.9556C11.3144 17.5105 11.4938 17.0848 11.8097 16.7711C12.1256 16.4574 12.5526 16.281 12.9977 16.2803H70.1524C70.6006 16.2803 71.0305 16.4583 71.3475 16.7753C71.6645 17.0923 71.8425 17.5222 71.8425 17.9704V98.2989C71.8425 98.7472 71.6645 99.1771 71.3475 99.494C71.0305 99.811 70.6006 99.9891 70.1524 99.9891ZM12.9977 16.3395C12.5696 16.3403 12.1593 16.5109 11.8569 16.8139C11.5544 17.1169 11.3845 17.5275 11.3845 17.9556V98.2989C11.3845 98.727 11.5544 99.1377 11.8569 99.4407C12.1593 99.7437 12.5696 99.9143 12.9977 99.9151H70.1524C70.5808 99.9143 70.9914 99.7438 71.2943 99.4408C71.5972 99.1379 71.7678 98.7273 71.7685 98.2989V17.9556C71.7678 17.5272 71.5972 17.1166 71.2943 16.8137C70.9914 16.5108 70.5808 16.3403 70.1524 16.3395H12.9977Z" fill="#ECECEC"/>
<path d="M134.18 99.9891H77.0222C76.5742 99.9883 76.1447 99.81 75.8279 99.4932C75.5111 99.1764 75.3328 98.7469 75.332 98.2989V17.9556C75.3367 17.5102 75.5167 17.0845 75.8331 16.7709C76.1495 16.4573 76.5767 16.281 77.0222 16.2803H134.18C134.624 16.2818 135.051 16.4585 135.366 16.7721C135.681 17.0858 135.86 17.511 135.864 17.9556V98.2989C135.864 98.7461 135.687 99.1751 135.371 99.4919C135.055 99.8087 134.627 99.9875 134.18 99.9891ZM77.0222 16.3395C76.5938 16.3403 76.1832 16.5108 75.8803 16.8137C75.5773 17.1166 75.4068 17.5272 75.406 17.9556V98.2989C75.4068 98.7273 75.5773 99.1379 75.8803 99.4408C76.1832 99.7438 76.5938 99.9143 77.0222 99.9151H134.18C134.608 99.9143 135.019 99.7438 135.322 99.4408C135.625 99.1379 135.795 98.7273 135.796 98.2989V17.9556C135.795 17.5272 135.625 17.1166 135.322 16.8137C135.019 16.5108 134.608 16.3403 134.18 16.3395H77.0222Z" fill="#ECECEC"/>
<path d="M99.2783 56.1933C106.071 56.1933 111.577 50.6869 111.577 43.8945C111.577 37.1021 106.071 31.5957 99.2783 31.5957C92.4858 31.5957 86.9795 37.1021 86.9795 43.8945C86.9795 50.6869 92.4858 56.1933 99.2783 56.1933Z" fill="#F9F9F9"/>
<path d="M89.5721 52.4927C89.5721 51.9617 89.3614 51.4525 88.9862 51.0767C88.611 50.701 88.1021 50.4895 87.5711 50.4888C87.3706 50.4869 87.1709 50.5159 86.9791 50.5746C87.0701 49.9715 87.0295 49.3559 86.8601 48.7701C86.6907 48.1842 86.3965 47.6419 85.9978 47.1804C85.599 46.719 85.1052 46.3493 84.55 46.0967C83.9949 45.8441 83.3917 45.7147 82.7819 45.7172C82.5197 45.7178 82.2581 45.7426 82.0004 45.7912C81.5804 45.111 80.9518 44.5849 80.2082 44.2912C79.4647 43.9976 78.6462 43.9523 77.8747 44.1621C77.1033 44.3718 76.4204 44.8254 75.928 45.4551C75.4355 46.0848 75.1598 46.8568 75.1421 47.656H75.0799C74.191 47.6822 73.3473 48.0537 72.7278 48.6917C72.1082 49.3297 71.7617 50.184 71.7617 51.0734C71.7617 51.9627 72.1082 52.817 72.7278 53.455C73.3473 54.093 74.191 54.4645 75.0799 54.4907H87.6155C88.138 54.4791 88.6352 54.2636 89.0008 53.8902C89.3664 53.5168 89.5714 53.0152 89.5721 52.4927Z" fill="#F5F5F5"/>
<path d="M34.336 56.2844C34.336 55.7535 34.1253 55.2442 33.7501 54.8685C33.3749 54.4928 32.866 54.2813 32.335 54.2805C32.1347 54.2794 31.9353 54.3073 31.743 54.3634C31.7738 54.1606 31.7897 53.9558 31.7904 53.7507C31.7888 53.1271 31.65 52.5114 31.3841 51.9474C31.1181 51.3834 30.7313 50.8847 30.2512 50.4868C29.7711 50.0889 29.2093 49.8014 28.6057 49.6447C28.0021 49.488 27.3714 49.4659 26.7584 49.58C26.3406 48.8922 25.7104 48.3591 24.9628 48.0612C24.2153 47.7632 23.3911 47.7168 22.6147 47.9287C21.8384 48.1407 21.1522 48.5996 20.6598 49.2361C20.1674 49.8725 19.8955 50.652 19.8853 51.4567H19.8231C18.9342 51.4828 18.0904 51.8543 17.4709 52.4924C16.8514 53.1304 16.5049 53.9847 16.5049 54.874C16.5049 55.7633 16.8514 56.6176 17.4709 57.2556C18.0904 57.8936 18.9342 58.2651 19.8231 58.2913H32.3705C32.8963 58.2827 33.3975 58.0673 33.7655 57.6916C34.1334 57.3159 34.3384 56.8103 34.336 56.2844Z" fill="#F8F8F8"/>
<path d="M46.895 26.9101C46.8964 26.7211 46.8533 26.5344 46.7691 26.3652C46.6848 26.196 46.5619 26.049 46.4102 25.9363C46.2585 25.8235 46.0824 25.7481 45.8961 25.7162C45.7098 25.6843 45.5186 25.6968 45.338 25.7527C45.3911 25.3885 45.3652 25.0171 45.2621 24.6638C45.159 24.3105 44.9811 23.9835 44.7405 23.705C44.4999 23.4265 44.2022 23.203 43.8676 23.0497C43.533 22.8963 43.1693 22.8168 42.8013 22.8164C42.6424 22.8161 42.4838 22.8309 42.3277 22.8608C42.073 22.4504 41.6924 22.1333 41.2428 21.9568C40.7932 21.7802 40.2985 21.7537 39.8326 21.8812C39.3667 22.0086 38.9545 22.2832 38.6573 22.6641C38.3602 23.0449 38.194 23.5115 38.1837 23.9945H38.1482C37.5986 23.9945 37.0716 24.2128 36.683 24.6013C36.2945 24.9899 36.0762 25.5169 36.0762 26.0665C36.0762 26.616 36.2945 27.143 36.683 27.5316C37.0716 27.9202 37.5986 28.1385 38.1482 28.1385H45.7317C46.0476 28.1261 46.3461 27.9907 46.5635 27.7612C46.7809 27.5316 46.8998 27.2262 46.895 26.9101Z" fill="#F5F5F5"/>
<path d="M26.5986 72.1232L34.6143 108.534L36.0706 107.85L27.6524 71.9189L26.5986 72.1232Z" fill="#F8F8F8"/>
<path d="M118.631 108.36C118.631 108.36 113.664 74.1485 124.829 38.7765L123.08 37.4268C123.08 37.4268 110.009 64.1851 111.912 109.331L118.631 108.36Z" fill="#F8F8F8"/>
<path d="M127.872 29.4758C131.963 26.794 138.016 31.0594 138.848 37.7253C138.247 37.3786 137.618 37.0816 136.968 36.8373C136.652 35.159 136.347 33.676 136.347 33.676L136.566 36.6863C136.205 36.5561 135.811 36.4288 135.382 36.3134L135.086 34.6942L134.953 36.2068C134.373 36.0715 133.786 35.9727 133.194 35.9108L132.431 31.1748L132.046 35.8161C131.44 35.7993 130.833 35.826 130.231 35.896L129.764 32.6814V35.9611C129.245 36.0449 128.733 36.1625 128.23 36.3134L127.671 31.5182C127.671 31.5182 127.686 34.2147 127.656 36.5028C126.209 37.0273 124.87 37.814 123.707 38.8234L123.663 38.2314C123.663 38.2314 124.134 31.9207 127.872 29.4758Z" fill="#F8F8F8"/>
<path d="M122.216 27.3331C118.96 23.6775 112.009 26.2112 109.467 32.4272C110.137 32.2473 110.821 32.1235 111.512 32.0572C112.255 30.521 112.939 29.1683 112.939 29.1683L111.941 32.0158C112.323 31.9862 112.735 31.9684 113.176 31.9684L113.871 30.4884L113.605 31.9832C114.2 31.9994 114.793 32.0528 115.381 32.1431L117.355 27.78L116.52 32.368C117.111 32.5082 117.689 32.6922 118.252 32.9186L119.546 29.9379L118.696 33.0932C119.176 33.3077 119.64 33.5559 120.084 33.8362L121.881 29.3518C121.881 29.3518 121.159 31.9507 120.59 34.1647C121.85 35.0509 122.936 36.1617 123.793 37.4415L123.992 36.882C123.992 36.882 125.178 30.6719 122.216 27.3331Z" fill="#F8F8F8"/>
<path d="M119.087 36.0024C122.343 32.8263 124.788 35.5909 124.788 35.5909C123.565 35.9076 122.473 36.692 121.532 37.6896L121.091 37.1153L121.162 38.0951C120.937 38.3556 120.718 38.6279 120.507 38.9091L119.761 37.213L120.081 39.51C119.785 39.948 119.489 40.398 119.243 40.8479L118.915 39.1666L118.942 41.3955C118.669 41.8987 118.427 42.393 118.21 42.8577L117.855 39.7704L117.808 43.7635C117.287 44.9948 117.015 45.8592 117.015 45.8592C117.015 45.8592 115.831 39.1814 119.087 36.0024Z" fill="#F8F8F8"/>
<path d="M127.872 43.5123L127.2 43.9001C127.102 43.3821 126.987 42.8404 126.859 42.2898L127.315 41.4522L126.741 41.8074C126.697 41.6238 126.646 41.4433 126.599 41.2598L127.191 39.6199L126.303 40.2741C125.829 38.7941 125.226 37.4946 124.471 36.873C124.471 36.873 131.936 39.2588 127.727 47.307C127.727 47.307 127.591 46.0342 127.292 44.3618L127.872 43.5123Z" fill="#F8F8F8"/>
<path d="M120.531 36.9259L119.347 34.6763L119.838 37.0206C119.72 37.0384 119.599 37.0621 119.477 37.0857L117.929 35.1588L118.311 37.3758C117.782 37.536 117.263 37.7278 116.757 37.9501C116.205 38.1973 115.667 38.473 115.144 38.7759L114.389 36.8075L114.741 39.0097C114.229 39.3057 113.729 39.6402 113.261 39.9777L112.888 38.2431L112.924 40.2174C112.332 40.6437 111.781 41.0758 111.272 41.4991L111.32 38.3556L110.861 41.8454C110.34 42.2894 109.869 42.7157 109.47 43.0945L109.413 40.913L108.86 43.6836C108.286 44.2549 107.957 44.6189 107.957 44.6189C108.253 36.9851 111.213 33.9629 116.109 33.1341C121.005 32.3053 124.533 37.3995 124.533 37.3995C124.533 37.3995 123.012 36.6773 120.531 36.9259Z" fill="#F8F8F8"/>
<path d="M134.81 46.2558L134.363 48.5439C134.147 47.9785 133.854 47.2533 133.475 46.4453L133.878 43.1153L133.144 45.7408C132.57 44.5469 131.905 43.3989 131.155 42.3072L131.853 39.9984L130.722 41.7122C130.495 41.4162 130.261 41.1202 130.018 40.8479L130.415 39.3945L129.802 40.6111C129.636 40.4276 129.464 40.2529 129.29 40.0842L129.772 38.1454L129.006 39.8237C128.529 39.3874 128.003 39.007 127.44 38.6901L128.218 36.3221L126.999 38.471C126.232 38.1113 125.392 37.936 124.545 37.9589C124.545 37.9589 126.025 35.5909 128.745 34.7769C131.465 33.9629 137.329 38.8884 134.784 49.7545C134.784 49.7545 134.707 49.5089 134.553 49.0856L134.81 46.2558Z" fill="#F8F8F8"/>
<path d="M130.323 25.1425L130.787 26.5218C130.616 26.5316 130.445 26.5563 130.278 26.5958L129.719 24.7991L130.092 26.6402C129.737 26.7463 129.398 26.9007 129.085 27.099L128.316 24.6748L128.76 27.3181C128.635 27.4098 128.511 27.5105 128.384 27.6141L127.514 25.3378L128.168 27.8242C127.525 28.4681 126.975 29.1995 126.537 29.9969L126.309 26.6402L125.924 31.1957C125.286 32.6202 124.771 34.0967 124.385 35.609C124.385 35.609 123.911 23.473 126.833 22.1114C129.754 20.7498 131.492 26.5781 131.492 26.5781C131.362 26.5398 131.228 26.5179 131.092 26.513L130.323 25.1425Z" fill="#F8F8F8"/>
<path d="M126.149 38.6427L125.889 40.9426L125.001 38.7256L123.817 40.4602L123.349 38.844L121.981 39.9925C121.981 39.9925 122.15 37.0591 123.023 35.7182C123.897 34.3773 126.519 35.3186 126.149 38.6427Z" fill="#F8F8F8"/>
<path d="M89.6881 75.6252V59.5879C89.6881 59.5879 86.4321 63.0481 84.2802 62.5745C82.1283 62.1009 79.3281 63.7378 79.3281 63.7378C79.3281 63.7378 82.149 63.3264 83.1968 64.4719C84.2447 65.6174 88.9215 65.7388 88.9215 65.7388V76.2113L89.6881 75.6252Z" fill="#F5F5F5"/>
<path d="M104.044 70.709H103.304V71.7183H100.865V70.709H98.4677V71.7183H96.0287V70.709H93.634V71.7183H91.192V70.709H88.7974V71.7183H86.3584V70.709H83.9608V71.7183H81.5217V70.709H79.1241V71.7183H76.6851V70.709H75.8652L73.4883 89.7122L106.501 89.576L104.044 70.709Z" fill="#F8F8F8"/>
<path d="M109.295 84.502H108.28V85.8872H104.929V84.502H101.638V85.8872H98.284V84.502H94.9924V85.8872H91.6417V84.502H88.3502V85.8872H84.9965V84.502H81.705V85.8872H78.3513V84.502H75.0598V85.8872H71.7091V84.502H70.5813L67.3135 110.612L112.675 110.423L109.295 84.502Z" fill="#F1F1F1"/>
<path d="M126.052 107.538C125.35 106.747 124.69 105.939 123.956 105.17C123.918 105.131 123.883 105.09 123.853 105.045C123.611 104.889 123.359 104.749 123.098 104.628C123.05 104.613 122.896 104.551 122.74 104.492C122.444 104.385 122.148 104.27 121.852 104.151C120.013 103.411 118.362 102.553 116.974 101.094C116.213 100.294 115.606 99.362 114.819 98.5865C114.798 98.6131 114.644 98.5303 114.57 98.4711L113.978 98.3941C113.661 98.3941 113.342 98.3941 113.025 98.4148C112.572 98.4356 112.119 98.4711 111.666 98.5125C109.89 101.094 107.67 104.619 106.688 105.084C105.163 105.806 91.115 109.524 90.079 109.296C89.043 109.068 83.6203 109.515 82.2587 109.465C80.897 109.414 78.4314 108.81 74.8587 107.168C71.2859 105.525 69.3383 105.516 65.0374 104.145C60.7365 102.775 57.8534 102.254 55.3374 104.361C52.8214 106.469 45.9099 102.02 43.755 101.387C41.6001 100.753 37.4798 97.1035 34.6678 98.8055C31.8558 100.508 29.5174 101.319 26.0039 104.361C22.4903 107.404 15.5195 113.286 15.5195 113.286H134.216L132.851 110.903C131.55 110.824 130.279 110.485 129.111 109.907C127.944 109.329 126.903 108.524 126.052 107.538Z" fill="#F8F8F8"/>
<path d="M12.7812 78.4407C12.7812 78.4407 16.2356 72.2247 25.5951 66.8611C25.5951 66.8611 33.2141 66.2129 41.8159 69.9632C41.8159 69.9632 43.5593 72.8581 41.5761 74.0007C39.5929 75.1432 37.9501 72.8463 37.9501 72.8463C37.9501 72.8463 37.5831 76.345 34.9901 76.4456C32.3972 76.5463 31.6453 74.0007 31.6453 74.0007C31.6453 74.0007 31.3908 77.2123 28.3035 78.0233C25.6336 78.7367 23.976 76.4456 23.976 76.4456C23.976 76.4456 23.4432 79.0859 21.0426 79.8467C19.1127 80.4564 17.7866 78.7959 17.7866 78.7959C17.7866 78.7959 17.2331 81.6611 15.1848 81.6611C13.4236 81.6611 12.7812 78.4407 12.7812 78.4407Z" fill="#F8F8F8"/>
<path d="M73.9998 126.558C105.696 126.558 131.391 125.058 131.391 123.207C131.391 121.357 105.696 119.856 73.9998 119.856C42.3034 119.856 16.6084 121.357 16.6084 123.207C16.6084 125.058 42.3034 126.558 73.9998 126.558Z" fill="#F5F5F5"/>
<path d="M113.664 108.605C113.664 108.605 114.952 106.72 116.124 106.193C117.296 105.666 117.485 103.662 118.122 103.553C118.758 103.443 119.46 105.29 120.573 105.829C121.686 106.367 123.37 108.593 123.37 108.593L113.664 108.605Z" fill="#FF4949"/>
<path opacity="0.8" d="M113.664 108.605C113.664 108.605 114.952 106.72 116.124 106.193C117.296 105.666 117.485 103.662 118.122 103.553C118.758 103.443 119.46 105.29 120.573 105.829C121.686 106.367 123.37 108.593 123.37 108.593L113.664 108.605Z" fill="white"/>
<path d="M123.024 122.18H113.659L112.475 108.594H124.208L123.024 122.18Z" fill="#FF4949"/>
<path d="M124.773 107.889H111.906V109.318H124.773V107.889Z" fill="#FF4949"/>
<path opacity="0.2" d="M124.773 107.889H111.906V109.318H124.773V107.889Z" fill="white"/>
<path d="M117.788 108.896C118.64 110.234 122.29 115.754 124.551 116.157L124.829 115.488C124.829 115.488 122.805 115.73 118.317 108.558C118.275 108.489 118.207 108.438 118.129 108.417C118.05 108.395 117.966 108.405 117.894 108.443C117.856 108.464 117.823 108.494 117.797 108.529C117.771 108.563 117.752 108.603 117.742 108.646C117.732 108.689 117.731 108.733 117.739 108.776C117.746 108.819 117.763 108.86 117.788 108.896Z" fill="#263238"/>
<path d="M104.462 104.609C104.558 104.579 104.659 104.568 104.76 104.578C104.86 104.587 104.958 104.616 105.047 104.664C105.135 104.712 105.214 104.777 105.277 104.855C105.34 104.934 105.387 105.024 105.415 105.121L107.013 110.713L109.085 109.881C109.085 109.881 110.337 114.543 107.972 115.28C105.672 115.999 103.896 111.696 103.896 111.696L106.01 111.104L103.991 105.58C103.957 105.486 103.942 105.385 103.948 105.285C103.953 105.184 103.979 105.086 104.022 104.996C104.066 104.905 104.128 104.825 104.203 104.758C104.279 104.692 104.367 104.641 104.462 104.609Z" fill="#FF4949"/>
<path opacity="0.4" d="M107.981 115.28C105.672 115.999 103.896 111.695 103.896 111.695L106.01 111.103C106.01 111.103 106.374 111.725 106.782 111.571C107.191 111.417 107.025 110.704 107.025 110.704L109.097 109.872C109.097 109.872 110.346 114.552 107.981 115.28Z" fill="white"/>
<path d="M125.702 123.329C124.539 122.751 123.349 122.207 122.967 122.18C122.15 122.127 121.68 121.763 121.097 121.067C120.514 120.372 120.277 119.566 119.223 118.448C118.169 117.329 119.338 116.879 117.112 116.592C114.887 116.305 115.748 116.485 114.38 115.499C113.013 114.514 113.291 114.517 111.69 113.812C110.088 113.108 111.024 112.841 109.15 112.684C107.857 112.575 105.811 113.256 104.749 114.014C104.278 114.348 104.038 114.902 103.565 115.198C103.041 115.532 102.227 114.902 102.312 116.029C102.369 116.317 102.382 116.611 102.351 116.902C102.2 117.536 99.5923 117.533 98.9292 117.731C98.7712 117.76 98.6296 117.846 98.5326 117.974C98.3816 118.243 98.6095 118.72 98.3165 118.818C98.2247 118.85 98.1211 118.818 98.0205 118.832C97.6683 118.9 97.76 119.534 97.4285 119.679C97.097 119.824 96.7151 119.528 96.3481 119.679C96.0669 119.786 95.9722 120.164 95.7265 120.315C95.2973 120.576 94.8533 120.768 94.43 121.046C93.6959 121.526 93.0595 122.115 92.2722 122.526L90.1647 123.101L89.5342 123.323L125.702 123.329Z" fill="#FF4949"/>
<path opacity="0.8" d="M125.702 123.329C124.539 122.751 123.349 122.207 122.967 122.18C122.15 122.127 121.68 121.763 121.097 121.067C120.514 120.372 120.277 119.566 119.223 118.448C118.169 117.329 119.338 116.879 117.112 116.592C114.887 116.305 115.748 116.485 114.38 115.499C113.013 114.514 113.291 114.517 111.69 113.812C110.088 113.108 111.024 112.841 109.15 112.684C107.857 112.575 105.811 113.256 104.749 114.014C104.278 114.348 104.038 114.902 103.565 115.198C103.041 115.532 102.227 114.902 102.312 116.029C102.369 116.317 102.382 116.611 102.351 116.902C102.2 117.536 99.5923 117.533 98.9292 117.731C98.7712 117.76 98.6296 117.846 98.5326 117.974C98.3816 118.243 98.6095 118.72 98.3165 118.818C98.2247 118.85 98.1211 118.818 98.0205 118.832C97.6683 118.9 97.76 119.534 97.4285 119.679C97.097 119.824 96.7151 119.528 96.3481 119.679C96.0669 119.786 95.9722 120.164 95.7265 120.315C95.2973 120.576 94.8533 120.768 94.43 121.046C93.6959 121.526 93.0595 122.115 92.2722 122.526L90.1647 123.101L89.5342 123.323L125.702 123.329Z" fill="white"/>
<path d="M100.862 117.941C100.864 117.963 100.864 117.984 100.862 118.006C100.854 119.009 100.562 119.989 100.022 120.833C99.9773 120.901 99.9329 120.969 99.8826 121.037C99.5719 121.478 99.1967 121.871 98.7696 122.2C98.6748 122.278 98.576 122.35 98.4736 122.417C98.4503 122.434 98.4256 122.45 98.3996 122.464L98.3019 122.526C98.2514 122.56 98.199 122.592 98.145 122.621C98.0622 122.668 97.9763 122.715 97.8905 122.757C96.8599 123.276 95.6896 123.449 94.5529 123.251C93.4163 123.052 92.3737 122.493 91.5798 121.656C91.2176 121.282 90.9134 120.856 90.677 120.392C90.2869 119.633 90.0839 118.791 90.085 117.938V117.92C90.085 117.769 90.085 117.624 90.1057 117.47C90.1635 116.776 90.3576 116.1 90.677 115.481C90.7556 115.326 90.8426 115.175 90.9374 115.028C91.2476 114.547 91.6312 114.118 92.0741 113.756C92.2147 113.64 92.362 113.534 92.5151 113.436C92.5686 113.398 92.6239 113.362 92.6809 113.329C93.1045 113.069 93.5629 112.869 94.0425 112.737L94.1668 112.705C94.5948 112.598 95.0341 112.545 95.4751 112.545C95.6133 112.545 95.7494 112.551 95.8836 112.563H95.9872C96.5858 112.619 97.1703 112.778 97.7158 113.03L97.7839 113.063C98.5942 113.446 99.2956 114.026 99.8245 114.75C100.353 115.474 100.693 116.318 100.812 117.207C100.847 117.45 100.863 117.695 100.862 117.941Z" fill="#FF4949"/>
<path opacity="0.6" d="M100.862 117.941C100.863 118.942 100.584 119.924 100.057 120.775C99.5294 121.627 98.7749 122.314 97.878 122.76C97.755 122.66 97.6542 122.536 97.582 122.396C98.5766 119.495 97.582 117.941 97.582 117.941V117.911L97.6531 117.446V117.361C97.807 116.499 98.1947 114.886 99.0354 113.909C99.6084 114.413 100.068 115.033 100.382 115.728C100.697 116.423 100.861 117.178 100.862 117.941Z" fill="white"/>
<path opacity="0.6" d="M91.3423 117.009C91.3423 117.009 90.398 117.953 90.6763 120.395C90.1135 119.296 89.9452 118.038 90.1995 116.83C90.4539 115.621 91.1154 114.537 92.0734 113.759C91.551 114.76 91.299 115.88 91.3423 117.009Z" fill="white"/>
<path opacity="0.2" d="M99.0506 113.91C97.8666 115.283 97.5706 117.941 97.5706 117.941C94.3146 118.738 91.3339 117.009 91.3339 117.009C91.2906 115.879 91.5426 114.756 92.065 113.753C93.0567 112.946 94.303 112.519 95.5811 112.546C96.8592 112.574 98.0858 113.055 99.0417 113.904L99.0506 113.91Z" fill="white"/>
<path opacity="0.2" d="M97.875 122.76C96.8458 123.275 95.6784 123.446 94.5449 123.247C93.4113 123.048 92.3717 122.491 91.5791 121.656C92.5885 122.248 94.6516 123.098 97.579 122.393C97.6508 122.535 97.7517 122.66 97.875 122.76Z" fill="white"/>
<g opacity="0.2">
<path d="M97.7866 113.072C97.6456 113.269 97.5161 113.475 97.3988 113.687C97.1797 114.095 96.9908 114.519 96.8335 114.954C96.6677 115.389 96.5374 115.842 96.419 116.283C96.3006 116.724 96.2 117.189 96.123 117.648C96.1541 117.181 96.2194 116.717 96.3184 116.26C96.4186 115.8 96.5471 115.347 96.7032 114.904C96.8645 114.464 97.0625 114.038 97.2952 113.631C97.4241 113.426 97.5645 113.228 97.7155 113.039L97.7866 113.072Z" fill="black"/>
<path d="M95.9873 112.574C95.9133 112.707 95.8452 112.844 95.7801 112.98C95.5627 113.439 95.3835 113.915 95.2443 114.404C95.0874 114.889 94.969 115.386 94.8565 115.884C94.7441 116.381 94.6493 116.884 94.5605 117.387C94.5907 116.875 94.652 116.365 94.7441 115.86C94.8327 115.354 94.9513 114.854 95.0993 114.362C95.2469 113.867 95.4401 113.386 95.6765 112.927C95.7416 112.805 95.8097 112.684 95.8807 112.568L95.9873 112.574Z" fill="black"/>
<path d="M94.1666 112.71L94.0749 112.95C93.9118 113.389 93.7783 113.839 93.6753 114.297C93.5598 114.752 93.471 115.214 93.3793 115.679C93.2875 116.144 93.2224 116.608 93.1543 117.076C93.1647 116.602 93.2032 116.13 93.2697 115.661C93.3345 115.188 93.4234 114.719 93.5361 114.255C93.6444 113.791 93.7899 113.337 93.9713 112.896C93.9949 112.843 94.0186 112.787 94.0453 112.734L94.1666 112.71Z" fill="black"/>
<path d="M92.6812 113.332C92.5805 113.664 92.4858 113.995 92.4177 114.333C92.3497 114.67 92.2697 115.09 92.2105 115.472C92.1513 115.854 92.1099 116.239 92.0744 116.627C92.0542 116.238 92.0621 115.848 92.0981 115.46C92.1355 115.072 92.1938 114.685 92.2727 114.303C92.3387 114.011 92.4197 113.722 92.5154 113.439C92.5689 113.4 92.6242 113.365 92.6812 113.332Z" fill="black"/>
<path d="M99.0948 119.738C99.1104 120.295 99.0374 120.852 98.8787 121.387C98.7996 121.653 98.7006 121.913 98.5827 122.165C98.5442 122.251 98.4998 122.337 98.4554 122.42C98.4321 122.438 98.4074 122.453 98.3814 122.467C98.5434 122.11 98.6713 121.738 98.7633 121.357C98.9019 120.83 98.9618 120.285 98.9409 119.741C98.9323 119.196 98.8486 118.655 98.6922 118.134C98.5388 117.606 98.32 117.1 98.041 116.627C98.3717 117.076 98.6276 117.576 98.7988 118.107C98.979 118.633 99.0788 119.182 99.0948 119.738Z" fill="black"/>
<path d="M100.158 119.584L100.143 120.031L100.081 120.475C100.068 120.596 100.047 120.715 100.019 120.833C99.9743 120.901 99.9299 120.969 99.8796 121.037C99.9238 120.847 99.9535 120.655 99.9684 120.46L100.013 120.022V119.584C100.023 119.437 100.023 119.29 100.013 119.143C99.998 118.998 99.998 118.847 99.9714 118.708C99.9039 118.125 99.7575 117.555 99.5363 117.012C99.3225 116.463 99.0293 115.948 98.666 115.484C99.0756 115.916 99.4053 116.417 99.6399 116.964C99.8819 117.513 100.043 118.093 100.119 118.687C100.143 118.835 100.14 118.983 100.152 119.134C100.164 119.284 100.166 119.434 100.158 119.584Z" fill="black"/>
<path d="M100.862 117.941C100.864 117.963 100.864 117.984 100.862 118.006L100.845 117.905C100.719 117.292 100.52 116.696 100.253 116.129C99.9906 115.556 99.6455 115.024 99.2285 114.552C99.689 114.992 100.07 115.509 100.353 116.079C100.542 116.449 100.698 116.834 100.821 117.231C100.852 117.466 100.865 117.703 100.862 117.941Z" fill="black"/>
<path d="M91.0795 116.156C90.8418 116.426 90.638 116.725 90.4727 117.044C90.3189 117.329 90.1892 117.626 90.085 117.932C90.085 117.781 90.085 117.636 90.1057 117.482C90.1849 117.311 90.2749 117.145 90.375 116.985C90.5596 116.67 90.7981 116.389 91.0795 116.156Z" fill="black"/>
<path d="M91.3339 114.724C91.1089 114.978 90.8899 115.23 90.6768 115.484C90.7554 115.329 90.8424 115.178 90.9372 115.031C91.0635 114.921 91.196 114.819 91.3339 114.724Z" fill="black"/>
<path d="M91.334 118.151C91.8253 118.341 92.3226 118.507 92.814 118.655C93.3161 118.803 93.826 118.925 94.3413 119.019C95.367 119.24 96.4294 119.227 97.4493 118.98C96.9529 119.166 96.4284 119.266 95.8983 119.276C95.3676 119.287 94.8372 119.245 94.3147 119.152C93.7948 119.054 93.2825 118.919 92.7814 118.749C92.2845 118.587 91.8006 118.387 91.334 118.151Z" fill="black"/>
<path d="M91.334 119.438C91.8286 119.635 92.3347 119.801 92.8495 119.936C93.3628 120.071 93.8851 120.17 94.4124 120.232C94.938 120.304 95.4689 120.329 95.9989 120.306L96.3956 120.288L96.7922 120.241C97.0586 120.223 97.3132 120.146 97.5796 120.107C97.0694 120.276 96.5406 120.381 96.0049 120.421C95.468 120.459 94.9288 120.445 94.3946 120.38C93.8616 120.309 93.335 120.196 92.8199 120.042C92.3063 119.889 91.8087 119.687 91.334 119.438Z" fill="black"/>
<path d="M91.4639 120.552C91.9296 120.769 92.4115 120.949 92.9054 121.09C93.3974 121.231 93.9004 121.33 94.4091 121.386C94.6636 121.428 94.9182 121.434 95.1727 121.452C95.4273 121.469 95.6848 121.452 95.9423 121.437C96.4549 121.408 96.9639 121.335 97.4638 121.218C96.9749 121.39 96.4671 121.502 95.9512 121.552C95.4322 121.604 94.909 121.598 94.3913 121.534C93.875 121.471 93.3663 121.356 92.8728 121.191C92.3802 121.033 91.9074 120.818 91.4639 120.552Z" fill="black"/>
<path d="M91.6865 121.39C92.1259 121.593 92.5801 121.762 93.0452 121.896C93.5076 122.034 93.9809 122.133 94.46 122.192C94.9381 122.263 95.4224 122.282 95.9045 122.248L96.2656 122.221L96.6208 122.162C96.8636 122.139 97.0915 122.056 97.3312 122.008C96.8773 122.192 96.4001 122.311 95.9134 122.363C95.4218 122.422 94.925 122.422 94.4334 122.363C93.9472 122.301 93.4683 122.191 93.0037 122.035C92.5411 121.872 92.0991 121.655 91.6865 121.39Z" fill="black"/>
</g>
<path d="M33.6816 109.473C33.6816 109.473 34.7354 107.889 36.6091 107.774C38.4828 107.658 40.0634 110.047 40.0634 110.047H39.4714C39.4714 110.047 37.9588 108.416 36.8755 108.416C35.7921 108.416 34.7384 109.763 34.7384 109.763L33.6816 109.473Z" fill="#263238"/>
<path d="M17.7832 121.969C18.4314 120.889 25.6923 121.591 27.3322 120.945L28.2202 122.47C28.2202 122.47 26.9681 123.162 24.8902 122.917C22.8122 122.671 19.6717 122.606 18.8518 123.328L17.7832 121.969Z" fill="#263238"/>
<path opacity="0.3" d="M17.7832 121.969C18.4314 120.889 25.6923 121.591 27.3322 120.945L28.2202 122.47C28.2202 122.47 26.9681 123.162 24.8902 122.917C22.8122 122.671 19.6717 122.606 18.8518 123.328L17.7832 121.969Z" fill="black"/>
<path d="M48.3661 118.676C48.3069 118.933 48.2418 119.185 48.1678 119.43C47.5758 121.446 46.6641 123.077 46.001 123.329H27.1784C26.9196 123.329 26.6642 123.269 26.4317 123.156C26.1993 123.042 25.9961 122.876 25.8375 122.672L25.8227 122.651C25.7532 122.559 25.6946 122.46 25.6481 122.355C24.3486 119.64 23.0374 114.212 24.8814 111.737C25.0743 111.479 25.2969 111.245 25.5445 111.039L25.5978 110.997C25.9883 110.679 26.4205 110.415 26.8824 110.213H26.8972C28.1937 109.621 29.7862 109.357 31.3372 109.242C31.7901 109.206 32.2252 109.186 32.681 109.177C33.8354 109.144 34.9129 109.177 35.7713 109.198C38.7964 109.275 41.1762 110.174 42.7983 110.018C43.394 109.955 43.9961 110.003 44.5743 110.16C44.7408 110.206 44.9048 110.262 45.0657 110.325C45.8039 110.637 46.4905 111.06 47.1022 111.577C48.9551 113.049 48.9818 116.065 48.3661 118.676Z" fill="#263238"/>
<path opacity="0.1" d="M48.3661 118.676C48.3069 118.933 48.2418 119.185 48.1678 119.43C47.5758 121.446 46.6641 123.077 46.001 123.329H27.1784C26.9196 123.329 26.6642 123.269 26.4317 123.156C26.1993 123.042 25.9961 122.876 25.8375 122.672L25.8227 122.651C25.7532 122.559 25.6946 122.46 25.6481 122.355C24.3486 119.64 23.0374 114.212 24.8814 111.737C25.0743 111.479 25.2969 111.245 25.5445 111.039L25.5978 110.997C25.9883 110.679 26.4205 110.415 26.8824 110.213H26.8972C28.1937 109.621 29.7862 109.357 31.3372 109.242C31.7901 109.206 32.2252 109.186 32.681 109.177C33.8354 109.144 34.9129 109.177 35.7713 109.198C38.7964 109.275 41.1762 110.174 42.7983 110.018C43.394 109.955 43.9961 110.003 44.5743 110.16C44.7408 110.206 44.9048 110.262 45.0657 110.325C45.8039 110.637 46.4905 111.06 47.1022 111.577C48.9551 113.049 48.9818 116.065 48.3661 118.676Z" fill="white"/>
<path opacity="0.2" d="M45.483 118.489C44.1362 118.489 41.4426 119.131 37.4614 118.255C35.6053 117.814 33.6732 117.8 31.8108 118.214C31.7664 117.622 31.719 116.962 31.6658 116.245C31.3135 111.435 28.5696 109.417 26.8972 110.216H26.8824C26.4286 110.433 25.9982 110.696 25.5978 111L25.5445 111.042C25.2969 111.248 25.0743 111.482 24.8814 111.74C23.0374 114.215 24.3486 119.644 25.6481 122.358C25.6946 122.463 25.7532 122.562 25.8227 122.654L25.8375 122.675C25.9975 122.856 26.1943 123.001 26.4148 123.101C26.6352 123.2 26.8743 123.252 27.1162 123.252H30.4877C31.8641 123.252 32.0269 121.991 31.873 119.282C32.1068 119.149 32.3939 118.986 32.7136 118.767C33.5513 118.223 36.8102 118.492 38.2162 119.019C39.6222 119.546 43.3104 119.78 45.0953 119.49C46.1108 119.339 47.1415 119.32 48.1618 119.433C48.2358 119.188 48.301 118.936 48.3602 118.679C47.7504 118.611 46.4717 118.489 45.483 118.489Z" fill="black"/>
<path opacity="0.2" d="M33.2461 111.696C34.066 114.682 34.6284 115.736 34.8445 116.029C35.0606 116.322 41.022 117.03 42.1409 117.027C43.4323 117.015 44.7201 116.888 45.9889 116.648C46.7496 116.455 46.9953 112.625 45.0772 110.328C44.9164 110.264 44.7524 110.209 44.5859 110.162C45.6308 112.507 45.6544 115.378 45.5301 115.786C45.3525 116.355 43.5972 116.272 42.7773 116.254C41.9574 116.236 36.8573 115.92 36.3364 115.712C35.8333 115.503 35.4052 115.148 35.108 114.691C34.6965 114.164 34.6403 112.35 33.8973 110.784C33.5819 110.189 33.1709 109.65 32.6808 109.188C32.2397 109.188 31.7928 109.218 31.3369 109.254C31.805 109.509 32.2159 109.857 32.5442 110.277C32.8726 110.697 33.1115 111.18 33.2461 111.696Z" fill="black"/>
<path d="M27.3322 114.445L25.6923 114.848C25.6923 114.848 24.529 118.187 25.2246 119.584C25.9202 120.981 20.4886 122.926 17.7832 121.952L18.8429 123.311C18.8429 123.311 25.2838 122.905 26.5122 120.454C27.7406 118.003 25.9854 117.624 25.8699 116.935C25.7545 116.245 27.3322 114.445 27.3322 114.445Z" fill="#263238"/>
<path opacity="0.1" d="M27.3322 114.445L25.6923 114.848C25.6923 114.848 24.529 118.187 25.2246 119.584C25.9202 120.981 20.4886 122.926 17.7832 121.952L18.8429 123.311C18.8429 123.311 25.2838 122.905 26.5122 120.454C27.7406 118.003 25.9854 117.624 25.8699 116.935C25.7545 116.245 27.3322 114.445 27.3322 114.445Z" fill="white"/>
<path d="M41.8164 45.5843C41.8164 45.5843 35.482 42.0323 34.1707 41.1206C32.8594 40.2089 25.8442 33.321 25.4535 33.1286C25.4535 33.1286 25.714 32.3412 25.125 31.8824C24.5359 31.4236 22.239 29.917 21.9134 29.917C21.5878 29.917 20.7294 33.1286 20.8626 33.916C20.9958 34.7033 24.2074 34.8987 24.2074 34.8987C24.2074 34.8987 30.894 42.6835 31.9418 43.7787C32.9897 44.8739 40.1351 49.524 40.1351 49.524L41.8164 45.5843Z" fill="#E4897B"/>
<path d="M44.4148 46.2388C44.4148 46.2388 45.803 49.0419 42.4316 53.4938L34.999 48.0296L37.959 42.6572L44.4148 46.2388Z" fill="#FF4949"/>
<path opacity="0.6" d="M42.4325 53.4938L38.922 50.9127L38.4632 50.5752L36.4829 49.1367L35.0029 48.0444L36.0952 46.0701L36.7049 44.9335L37.9629 42.6572L39.1765 43.3321L40.2244 43.9241L44.4098 46.2507C44.5472 46.5756 44.6322 46.9203 44.6614 47.2719C44.8005 48.4529 44.5993 50.6315 42.4325 53.4938Z" fill="white"/>
<path opacity="0.2" d="M42.4324 53.4935L38.9219 50.9124C40.1266 48.4201 43.2435 47.541 44.6672 47.2598C44.8004 48.4526 44.5992 50.6312 42.4324 53.4935Z" fill="black"/>
<g opacity="0.2">
<path d="M40.2295 43.9122L39.1816 44.522V43.332L40.2295 43.9122Z" fill="white"/>
<path d="M37.9507 45.3006L36.6364 47.1447L36.0918 46.0554L36.7104 44.9336L37.9507 45.3006Z" fill="white"/>
<path d="M38.9215 48.0742L38.4627 50.5754L36.4824 49.1221L38.9215 48.0742Z" fill="white"/>
<path d="M39.8301 46.6475L40.5612 48.5212L42.0797 46.4551L39.8301 46.6475Z" fill="white"/>
</g>
<path d="M58.2295 44.9124C58.2295 44.9124 64.5639 41.3604 65.8752 40.4487C67.1865 39.537 74.2017 32.6491 74.5953 32.4567C74.5953 32.4567 74.3319 31.6694 74.9209 31.2106C75.51 30.7518 77.8069 29.2451 78.1325 29.2451C78.4581 29.2451 79.3165 32.4567 79.1833 33.2441C79.0501 34.0314 75.8385 34.2268 75.8385 34.2268C75.8385 34.2268 69.1519 42.0146 68.1041 43.1068C67.0562 44.199 59.9108 48.8403 59.9108 48.8403L58.2295 44.9124Z" fill="#E4897B"/>
<path d="M50.6609 82.4219C50.6609 82.4219 50.5248 84.6567 50.3205 87.6463C50.1844 89.5052 50.0245 91.6512 49.8321 93.7261C49.5835 96.5144 49.3023 99.1725 49.0211 100.83C48.7636 102.349 45.3448 121.207 45.3448 121.207H43.0537C43.776 103.621 44.8948 96.8016 44.9363 95.7774C44.9363 95.4429 44.9629 94.9782 44.9777 94.4247C45.0221 92.4178 45.0606 89.2476 45.0843 86.9418C45.102 85.2783 45.1109 84.0676 45.1109 84.0676L50.6609 82.4219Z" fill="#E4897B"/>
<path d="M59.4969 96.6504C59.417 98.1866 58.5023 121.124 58.5023 121.124H55.9834C54.6958 102.855 55.1842 96.5113 54.9533 95.2444C54.5596 93.0895 54.1896 90.2568 53.935 88.1404C53.7308 86.4502 53.6035 85.2337 53.6035 85.2337L58.7391 83.0137C58.7391 83.0137 59.0499 85.6777 59.2838 88.8686C59.3992 90.467 59.4998 92.2045 59.5294 93.8206C59.5531 94.8329 59.5472 95.7979 59.4969 96.6504Z" fill="#E4897B"/>
<path opacity="0.2" d="M45.0724 86.9355L50.3205 87.6459C50.1843 89.5048 50.0245 91.6508 49.8321 93.7258L44.9658 94.4243C45.0102 92.4115 45.0487 89.2414 45.0724 86.9355Z" fill="black"/>
<path opacity="0.2" d="M59.5319 93.8327L54.9557 95.2417C54.5621 93.0868 54.1921 90.2541 53.9375 88.1377L59.2862 88.8659C59.4017 90.4672 59.4964 92.2047 59.5319 93.8327Z" fill="black"/>
<path d="M45.8802 120.496H42.8521C42.8025 120.497 42.7546 120.514 42.716 120.545C42.6774 120.577 42.6503 120.62 42.639 120.668L42.1506 122.882C42.1304 122.977 42.1486 123.076 42.2014 123.158C42.2541 123.239 42.3369 123.297 42.4318 123.317C42.4594 123.32 42.4872 123.32 42.5147 123.317C43.4915 123.302 44.2049 123.24 45.4303 123.24C46.1881 123.24 48.4702 123.32 49.5121 123.32C50.5541 123.32 50.6961 122.29 50.2669 122.192C48.3489 121.775 46.9044 121.198 46.2917 120.647C46.1789 120.546 46.0316 120.492 45.8802 120.496Z" fill="#FF4949"/>
<path d="M58.6916 120.419H55.6694C55.6199 120.418 55.5718 120.435 55.533 120.466C55.4942 120.496 55.4671 120.539 55.4563 120.588L54.9649 122.805C54.9555 122.853 54.9557 122.902 54.9655 122.95C54.9753 122.998 54.9946 123.044 55.0221 123.084C55.0496 123.124 55.0849 123.159 55.1259 123.186C55.1669 123.213 55.2128 123.231 55.2609 123.24H55.3409C56.3206 123.225 57.031 123.166 58.2594 123.166C59.0142 123.166 61.2964 123.243 62.3413 123.243C63.3861 123.243 63.5253 122.213 63.0931 122.118C61.175 121.701 59.7335 121.12 59.1208 120.57C59.0627 120.518 58.9949 120.477 58.9213 120.452C58.8476 120.426 58.7695 120.415 58.6916 120.419Z" fill="#FF4949"/>
<path d="M50.8677 92.4326C50.8914 92.2313 50.915 92.0212 50.9387 91.7844C51.2347 88.7533 51.5573 85.1155 51.8267 81.6108C52.8479 84.3577 53.289 88.2205 53.8218 92.4326H60.0378C59.5227 81.5309 58.173 72.6628 57.4566 68.8799H44.2728C44.255 70.2356 44.1041 83.3839 43.7637 92.4326H50.8677Z" fill="#263238"/>
<path opacity="0.2" d="M50.8677 92.4326C50.8914 92.2313 50.915 92.0212 50.9387 91.7844C51.2347 88.7533 51.5573 85.1155 51.8267 81.6108C52.8479 84.3577 53.289 88.2205 53.8218 92.4326H60.0378C59.5227 81.5309 58.173 72.6628 57.4566 68.8799H44.2728C44.255 70.2356 44.1041 83.3839 43.7637 92.4326H50.8677Z" fill="white"/>
<path d="M52.6883 41.8814C52.6594 42.0007 52.6238 42.1183 52.5817 42.2336C52.3459 42.8918 51.9167 43.4634 51.3504 43.8735C51.208 43.9779 51.0575 44.071 50.9004 44.1517C50.3002 44.4728 49.6114 44.5887 48.939 44.4819C48.2667 44.375 47.6478 44.0511 47.1768 43.5597C45.9306 42.3017 45.9632 40.8483 45.8211 38.3886C45.7835 37.86 45.8697 37.33 46.0727 36.8405C46.2425 36.4319 46.4911 36.0608 46.8044 35.7483C47.1176 35.4358 47.4894 35.1881 47.8984 35.0193C48.3074 34.8505 48.7457 34.764 49.1882 34.7647C49.6306 34.7653 50.0686 34.8531 50.4772 35.0231C52.8807 36.0058 53.2122 39.6643 52.6883 41.8814Z" fill="#E4897B"/>
<path opacity="0.2" d="M51.3418 43.8734C51.1994 43.9779 51.049 44.0709 50.8919 44.1516C50.4797 44.3714 50.0236 44.4961 49.557 44.5166C49.0904 44.5371 48.6251 44.4528 48.1953 44.27C48.3067 43.9744 48.4548 43.6939 48.6363 43.4353C49.5615 43.3193 50.5005 43.4713 51.3418 43.8734Z" fill="black"/>
<path d="M46.3896 47.0645C47.6032 48.1656 50.5721 47.7601 50.5721 47.7601C50.5721 47.7601 52.4251 47.251 52.0344 46.6738C50.9451 46.4932 50.4152 45.9841 50.1962 45.3299C50.078 44.9258 50.0408 44.5023 50.0867 44.0838C50.1042 43.8504 50.1348 43.6181 50.1784 43.3882L46.508 40.6709C46.9876 42.4647 47.5766 45.7651 46.3896 47.0645Z" fill="#E4897B"/>
<path d="M51.342 39.6436L51.8718 39.8419L51.6084 38.7585C51.6084 38.7585 52.3839 37.5745 51.6084 36.5474C51.6084 36.5474 53.7514 35.8962 52.5408 34.7714C52.0909 34.3511 51.5314 34.7714 50.0514 34.1291C49.2493 33.7768 46.7392 33.7502 46.6149 34.7714C46.6149 34.7714 44.8063 34.7714 44.611 37.8498C44.5538 38.7517 44.6958 39.6552 45.0268 40.4961C45.3577 41.3371 45.8696 42.095 46.5261 42.716C46.5261 42.716 48.7105 43.2311 49.7821 42.3549C50.8536 41.4788 51.342 39.6436 51.342 39.6436Z" fill="#263238"/>
<path d="M49.9446 39.8187C49.9907 40.0501 50.0881 40.2683 50.2294 40.4573C50.3708 40.6463 50.5526 40.8013 50.7615 40.9109C51.2618 41.1241 51.5933 40.4196 51.5193 39.6796C51.4512 39.0225 51.1108 38.0989 50.575 38.2233C50.0393 38.3476 49.7699 39.1557 49.9446 39.8187Z" fill="#E4897B"/>
<path opacity="0.2" d="M51.8392 81.5957C51.558 85.1004 51.2472 88.7471 50.9512 91.7781C50.5013 87.4003 49.9507 84.2805 49.9507 84.2805C49.9507 84.2805 49.4357 83.8572 48.0178 81.5957C46.6 79.3343 48.0178 75.1074 48.0178 75.1074C47.9527 79.0324 51.8392 81.5957 51.8392 81.5957Z" fill="black"/>
<path d="M60.4973 91.9199L60.225 92.947H53.6064V91.9969L60.4973 91.9199Z" fill="#FF4949"/>
<path d="M51.1879 92.0625L50.9896 93.0127H43.4949L43.042 92.0625H51.1879Z" fill="#FF4949"/>
<path d="M52.1117 46.3505C52.1117 46.3505 51.0343 44.6485 48.32 44.5272C45.6056 44.4058 45.3984 46.2736 45.3984 46.2736L52.1117 46.3505Z" fill="#FF4949"/>
<path opacity="0.5" d="M52.1117 46.3505C52.1117 46.3505 51.0343 44.6485 48.32 44.5272C45.6056 44.4058 45.3984 46.2736 45.3984 46.2736L52.1117 46.3505Z" fill="white"/>
<path d="M42.3644 45.2881C43.1831 54.5034 43.0839 63.7773 42.0684 72.973L57.9724 72.0021C57.7948 55.7724 55.6192 45.5486 55.6192 45.5486C55.6192 45.5486 51.5196 46.4099 48.1837 46.2856C46.2103 46.194 44.2557 45.8589 42.3644 45.2881Z" fill="#FF4949"/>
<path d="M55.631 45.5604C55.631 45.5604 57.7563 50.5273 57.9842 55.5534C58.2121 60.5795 49.3528 67.4881 49.3528 67.4881C49.3528 67.4881 42.5241 62.7876 37.2553 63.2139C31.9865 63.6401 30.3467 65.5138 30.3467 65.5138C30.3467 65.5138 34.4433 56.7492 41.5769 53.6945C41.5769 53.6945 40.0969 48.6477 42.3643 45.3118C42.3643 45.2881 47.2956 46.9043 55.631 45.5604Z" fill="#FF4949"/>
<path opacity="0.6" d="M57.9841 55.5534C57.9915 55.6953 57.9915 55.8376 57.9841 55.9796C57.9719 56.1992 57.9452 56.4177 57.9042 56.6338C57.8078 57.1422 57.6559 57.6385 57.4513 58.1138C56.8188 59.505 55.9937 60.8003 55.0005 61.9618C54.4973 62.5774 53.9645 63.1694 53.4376 63.72C52.1615 65.0657 50.7968 66.3245 49.3528 67.4881C47.5594 66.301 45.6527 65.2946 43.6607 64.4837C43.0539 64.241 42.4234 64.013 41.7811 63.8206C40.3223 63.3484 38.7894 63.1478 37.2582 63.2286C35.7968 63.3259 34.3536 63.6084 32.9633 64.0693C32.7235 64.1522 32.5015 64.241 32.2973 64.3268L32.1137 64.4067C31.6689 64.5996 31.2445 64.8366 30.8469 65.1142C30.8025 65.1438 30.761 65.1763 30.7225 65.2059C30.6841 65.2355 30.5834 65.3125 30.5301 65.3598L30.4591 65.422C30.441 65.4363 30.4241 65.4521 30.4088 65.4694L30.3733 65.5049L30.3525 65.5256C30.3525 65.5108 30.3881 65.4486 30.4413 65.3421L30.5242 65.1793C30.6071 65.0135 30.7225 64.7915 30.8735 64.5222L30.9386 64.4038L31.0541 64.1995C31.0925 64.1285 31.134 64.0545 31.1784 63.9805C31.3501 63.6845 31.5513 63.3411 31.7704 62.977C32.9871 61.0082 34.4273 59.1866 36.0624 57.5484C36.6453 56.9688 37.2621 56.4242 37.9094 55.9174C39.0282 55.027 40.2581 54.2857 41.568 53.7122C41.2284 52.4124 41.074 51.0711 41.1092 49.7281C41.1178 49.3051 41.1524 48.883 41.2128 48.4642C41.3485 47.3313 41.7425 46.2447 42.3642 45.2881C43.0916 45.4995 43.8336 45.6568 44.5842 45.7587C45.5651 45.9083 46.5531 46.0071 47.5442 46.0547C49.5377 46.144 51.5352 46.0737 53.5175 45.8446C54.1924 45.7716 54.8939 45.6729 55.6221 45.5486L55.6901 45.7143C56.1612 46.896 56.5673 48.1025 56.9067 49.3285C57.0369 49.7991 57.1672 50.3023 57.2915 50.8292C57.4158 51.3561 57.5105 51.8267 57.6053 52.3506C57.801 53.4089 57.9276 54.4787 57.9841 55.5534Z" fill="white"/>
<g opacity="0.2">
<path d="M55.9445 59.5879L55.0091 61.9796C54.5059 62.5953 53.9731 63.1873 53.4462 63.7378L51.543 60.1858L55.9445 59.5879Z" fill="white"/>
<path d="M39.8305 57.3026L36.0713 57.5187C36.6542 56.939 37.271 56.3944 37.9183 55.8877L39.8305 57.3026Z" fill="white"/>
<path d="M44.1671 47.834L43.7646 51.7412L41.1006 49.7254C41.1092 49.3024 41.1438 48.8803 41.2042 48.4615L44.1671 47.834Z" fill="white"/>
<path d="M45.3983 58.1285L44.167 54.3753L47.9114 53.6826L45.3983 58.1285Z" fill="white"/>
<path d="M51.8389 54.5527V57.3618L54.5265 56.3968L51.8389 54.5527Z" fill="white"/>
<path d="M44.9248 62.6905L43.6608 64.4665C43.054 64.2238 42.4236 63.9959 41.7812 63.8035L40.8281 61.6309L44.9248 62.6905Z" fill="white"/>
<path d="M35.3223 59.9961L37.2551 60.816L35.3223 62.1332V59.9961Z" fill="white"/>
<path d="M32.9604 64.0424C31.0364 64.7144 30.3467 65.5017 30.3467 65.5017C30.7762 64.6257 31.2535 63.7739 31.7764 62.9502L32.9604 64.0424Z" fill="white"/>
<path d="M48.7553 60.4082L47.0918 62.1339L49.6078 62.5749L48.7553 60.4082Z" fill="white"/>
<path d="M48.7549 49.5739L50.7114 52.2083L52.1115 49.2246L48.7549 49.5739Z" fill="white"/>
<path d="M57.6145 52.363L55.1133 50.7172L56.9159 49.3408C57.1705 50.2525 57.425 51.2796 57.6145 52.363Z" fill="white"/>
<path d="M57.981 55.98C57.9271 56.7205 57.7469 57.4463 57.4482 58.126L56.4004 55.5479L57.981 55.98Z" fill="white"/>
<path d="M55.699 45.7263L54.1154 47.3602L53.5234 45.8565C54.1983 45.7835 54.8998 45.6849 55.628 45.5605L55.699 45.7263Z" fill="white"/>
<path d="M47.5529 46.0576L46.3896 48.5203L44.584 45.7705C45.568 45.9175 46.5589 46.0133 47.5529 46.0576Z" fill="white"/>
</g>
<path opacity="0.2" d="M57.9839 55.554C57.9913 55.696 57.9913 55.8382 57.9839 55.9802C57.9717 56.1998 57.945 56.4183 57.904 56.6344C55.832 53.3488 56.3233 50.377 56.3233 50.377L57.3031 50.8417C57.4156 51.3301 57.5221 51.8392 57.6168 52.3631C57.8081 53.4177 57.9307 54.4835 57.9839 55.554Z" fill="black"/>
<path d="M49.5898 32.4807C53.1033 31.2701 53.9854 35.9498 50.4956 39.1141C47.0057 42.2783 42.9979 42.6661 42.542 41.0617C42.0862 39.4574 44.2263 34.3366 49.5898 32.4807Z" fill="#FF4949"/>
<path d="M46.0703 32.2432C47.8729 32.2432 50.4333 34.0784 50.4333 34.0784C50.4333 34.0784 50.8004 36.032 49.0037 37.7488C47.2069 39.4656 45.5849 39.7379 44.5844 39.0719C43.5839 38.4059 43.3057 35.8159 43.3057 35.8159C43.3969 35.5095 43.5608 35.2298 43.7834 35.0004C44.0061 34.7711 44.2809 34.5989 44.5844 34.4987C44.5844 34.4987 44.8804 32.2639 46.0703 32.2432Z" fill="#FF4949"/>
<path opacity="0.2" d="M49.0037 37.7488C47.2069 39.4656 45.5908 39.7379 44.5844 39.0749C44.409 38.9518 44.26 38.7948 44.1463 38.6131C43.4951 37.6334 43.3057 35.8248 43.3057 35.8248C45.0225 37.8968 47.0116 35.7567 47.2869 34.3123C47.3684 33.9692 47.3694 33.6119 47.2898 33.2683C47.2102 32.9248 47.0521 32.6043 46.8281 32.332C48.0121 32.5866 49.3085 33.3443 49.9775 33.7735C50.2735 33.9541 50.4333 34.0695 50.4333 34.0695C50.4333 34.0695 50.8004 36.032 49.0037 37.7488Z" fill="black"/>
<path opacity="0.6" d="M49.0029 37.7487C47.2061 39.4655 45.59 39.7378 44.5836 39.0748C44.4082 38.9517 44.2592 38.7947 44.1455 38.613C45.9452 39.1488 48.0882 38.2578 49.2397 36.6565C49.8502 35.8275 50.1145 34.7937 49.9767 33.7734C50.2727 33.954 50.4325 34.0694 50.4325 34.0694C50.4325 34.0694 50.7996 36.0319 49.0029 37.7487Z" fill="white"/>
<path d="M55.6308 45.561C55.6308 45.561 54.2426 48.3671 57.614 52.816L65.0466 47.3607L62.0866 41.9883L55.6308 45.561Z" fill="#FF4949"/>
<path opacity="0.6" d="M65.0461 47.3608L63.1073 48.7845L60.2391 50.895L57.6136 52.8249C57.4419 52.6 57.285 52.378 57.137 52.1619C56.8364 51.7215 56.5635 51.2628 56.32 50.7885C55.7196 49.6865 55.388 48.4583 55.3521 47.2039C55.332 46.6414 55.433 46.0812 55.6481 45.5611L57.2998 44.6435L60.1444 43.0658L61.3935 42.3702L62.0979 41.9795L65.0461 47.3608Z" fill="white"/>
<g opacity="0.2">
<path d="M63.1077 48.7757L60.2395 50.8862L58.9756 48.0742L63.1077 48.7757Z" fill="white"/>
<path d="M62.8413 44.2527L60.195 45.3005L60.127 43.0657L61.3761 42.3701L62.8413 44.2527Z" fill="white"/>
<path d="M58.2292 46.4551L55.3521 47.204C55.332 46.6415 55.433 46.0812 55.6481 45.5612L57.2998 44.6436L58.2292 46.4551Z" fill="white"/>
<path d="M57.6139 50.0449L57.1285 52.1524C56.8279 51.7121 56.555 51.2534 56.3115 50.779L57.6139 50.0449Z" fill="white"/>
</g>
<path d="M71.7995 95.3158L75.4971 95.6055L76.9377 77.2181L73.2402 76.9284L71.7995 95.3158Z" stroke="#263238" stroke-width="3" stroke-miterlimit="10"/>
<path d="M72.7477 120.928L73.3397 120.975C73.5045 120.973 73.668 121.005 73.8197 121.069C73.9714 121.134 74.108 121.229 74.2207 121.349C74.3334 121.47 74.4198 121.612 74.4743 121.768C74.5288 121.923 74.5502 122.088 74.5371 122.253C74.5241 122.417 74.4769 122.577 74.3986 122.722C74.3202 122.867 74.2125 122.994 74.0822 123.095C73.952 123.196 73.802 123.268 73.6421 123.308C73.4821 123.348 73.3156 123.354 73.1533 123.325L72.5613 123.278C72.3964 123.281 72.2327 123.249 72.0808 123.185C71.9288 123.121 71.792 123.026 71.679 122.905C71.566 122.785 71.4793 122.643 71.4246 122.487C71.3698 122.332 71.3482 122.166 71.361 122.002C71.3739 121.838 71.4209 121.678 71.4991 121.532C71.5774 121.387 71.6851 121.26 71.8154 121.159C71.9456 121.058 72.0956 120.985 72.2557 120.945C72.4157 120.905 72.5823 120.899 72.7448 120.928H72.7477Z" fill="#263238"/>
<path opacity="0.1" d="M71.46 121.988C71.4408 122.225 71.4924 122.463 71.6082 122.67C71.724 122.878 71.8989 123.047 72.1107 123.155C72.3225 123.263 72.5617 123.306 72.7979 123.279C73.0342 123.251 73.2569 123.154 73.4378 122.999C73.6188 122.845 73.7499 122.64 73.8144 122.411C73.879 122.182 73.8742 121.939 73.8006 121.713C73.727 121.487 73.5879 121.288 73.401 121.141C73.2141 120.994 72.9877 120.905 72.7505 120.887C72.5931 120.872 72.4343 120.889 72.2836 120.937C72.1328 120.985 71.9932 121.062 71.8729 121.165C71.7526 121.268 71.6541 121.393 71.5832 121.535C71.5123 121.676 71.4704 121.83 71.46 121.988Z" fill="white"/>
<path d="M69.5153 120.677L70.1073 120.721C70.2722 120.718 70.4358 120.75 70.5878 120.814C70.7397 120.878 70.8765 120.974 70.9895 121.094C71.1025 121.214 71.1892 121.356 71.2439 121.512C71.2987 121.667 71.3204 121.833 71.3075 121.997C71.2947 122.162 71.2476 122.322 71.1694 122.467C71.0912 122.612 70.9834 122.739 70.8532 122.84C70.7229 122.941 70.5729 123.014 70.4129 123.054C70.2528 123.094 70.0862 123.1 69.9238 123.071L69.3318 123.027C69.1669 123.03 69.0032 122.998 68.8513 122.934C68.6993 122.87 68.5625 122.775 68.4495 122.654C68.3365 122.534 68.2499 122.392 68.1951 122.236C68.1403 122.081 68.1187 121.915 68.1315 121.751C68.1444 121.587 68.1914 121.427 68.2696 121.281C68.3479 121.136 68.4556 121.009 68.5859 120.908C68.7161 120.807 68.8661 120.734 69.0262 120.694C69.1862 120.654 69.3528 120.648 69.5153 120.677Z" fill="#263238"/>
<path opacity="0.2" d="M68.2273 121.736C68.2087 121.973 68.2608 122.211 68.377 122.418C68.4933 122.625 68.6684 122.794 68.8803 122.901C69.0922 123.009 69.3313 123.052 69.5674 123.024C69.8035 122.996 70.026 122.898 70.2066 122.744C70.3873 122.589 70.518 122.384 70.5824 122.156C70.6467 121.927 70.6416 121.684 70.5679 121.458C70.4942 121.232 70.355 121.033 70.1681 120.886C69.9812 120.739 69.7549 120.651 69.5179 120.632C69.2006 120.609 68.8867 120.711 68.645 120.918C68.4032 121.125 68.253 121.419 68.2273 121.736Z" fill="white"/>
<path d="M68.9769 121.032L73.5568 121.391C73.9952 121.425 74.3784 121.098 74.4128 120.659L76.5938 92.8229C76.6281 92.3845 76.3006 92.0013 75.8622 91.9669L71.2823 91.6081C70.8439 91.5738 70.4606 91.9013 70.4263 92.3397L68.2453 120.176C68.2109 120.614 68.5385 120.998 68.9769 121.032Z" fill="#263238"/>
<path opacity="0.2" d="M71.2629 121.207L73.5587 121.387C73.9971 121.421 74.3804 121.094 74.4147 120.655L76.5957 92.819C76.6301 92.3806 76.3025 91.9974 75.8641 91.963L73.5683 91.7832C73.1299 91.7488 72.7466 92.0764 72.7123 92.5148L70.5313 120.351C70.4969 120.79 70.8245 121.173 71.2629 121.207Z" fill="white"/>
<path d="M73.0589 77.0967L76.9217 77.4058C77.2486 77.4319 77.5349 77.1881 77.561 76.8611L77.5902 76.497C77.6163 76.1701 77.3725 75.8838 77.0455 75.8577L73.1827 75.5487C72.8558 75.5225 72.5695 75.7663 72.5434 76.0933L72.5142 76.4574C72.4881 76.7843 72.7319 77.0706 73.0589 77.0967Z" fill="#263238"/>
<path opacity="0.2" d="M73.0589 77.0967L76.9217 77.4058C77.2486 77.4319 77.5349 77.1881 77.561 76.8611L77.5902 76.497C77.6163 76.1701 77.3725 75.8838 77.0455 75.8577L73.1827 75.5487C72.8558 75.5225 72.5695 75.7663 72.5434 76.0933L72.5142 76.4574C72.4881 76.7843 72.7319 77.0706 73.0589 77.0967Z" fill="white"/>
<path opacity="0.2" d="M73.1477 77.4805L73.4694 77.5056C73.7953 77.5311 74.0802 77.2875 74.1057 76.9616L74.1341 76.5986C74.1596 76.2726 73.916 75.9877 73.59 75.9623L73.2684 75.9371C72.9424 75.9116 72.6575 76.1552 72.632 76.4812L72.6037 76.8441C72.5782 77.1701 72.8218 77.455 73.1477 77.4805Z" fill="black"/>
<path d="M85.112 94.9099L83.1406 120.07C83.1059 120.514 82.8962 120.926 82.5576 121.216C82.219 121.506 81.7793 121.649 81.335 121.615L72.159 120.896C71.8479 120.869 71.5598 120.721 71.3574 120.483C71.1551 120.245 71.0549 119.937 71.0786 119.626L73.1121 93.4684C73.1378 93.1573 73.2854 92.8689 73.5226 92.666C73.7599 92.4631 74.0677 92.3621 74.379 92.385L83.555 93.1043C83.776 93.1201 83.9917 93.1793 84.1898 93.2787C84.3878 93.3781 84.5642 93.5156 84.7089 93.6834C84.8536 93.8512 84.9637 94.0459 85.0329 94.2564C85.102 94.4669 85.1289 94.689 85.112 94.9099Z" fill="#FF4949"/>
<path opacity="0.2" d="M85.112 94.9099L83.1406 120.07C83.1059 120.514 82.8962 120.926 82.5576 121.216C82.219 121.506 81.7793 121.649 81.335 121.615L72.159 120.896C71.8479 120.869 71.5598 120.721 71.3574 120.483C71.1551 120.245 71.0549 119.937 71.0786 119.626L73.1121 93.4684C73.1378 93.1573 73.2854 92.8689 73.5226 92.666C73.7599 92.4631 74.0677 92.3621 74.379 92.385L83.555 93.1043C83.776 93.1201 83.9917 93.1793 84.1898 93.2787C84.3878 93.3781 84.5642 93.5156 84.7089 93.6834C84.8536 93.8512 84.9637 94.0459 85.0329 94.2564C85.102 94.4669 85.1289 94.689 85.112 94.9099Z" fill="white"/>
<path opacity="0.2" d="M78.8012 92.7313V92.7669L78.4726 92.7402C78.1608 92.7173 77.8526 92.8187 77.6152 93.0222C77.3779 93.2258 77.2307 93.5149 77.2057 93.8265L75.1574 119.975C75.1387 120.238 75.208 120.499 75.3544 120.718C75.5007 120.936 75.7157 121.1 75.9655 121.183L72.15 120.887C71.8389 120.861 71.5505 120.714 71.3476 120.476C71.1447 120.239 71.0438 119.931 71.0667 119.62L73.112 93.4713C73.137 93.1597 73.2842 92.8705 73.5215 92.667C73.7589 92.4635 74.0671 92.3621 74.3789 92.385L78.8012 92.7313Z" fill="black"/>
<path opacity="0.2" d="M78.723 93.6472L78.5873 93.6365C78.4096 93.6226 78.2543 93.7553 78.2404 93.933L76.2319 119.568C76.218 119.746 76.3507 119.901 76.5284 119.915L76.6641 119.925C76.8418 119.939 76.9971 119.807 77.011 119.629L79.0195 93.994C79.0334 93.8164 78.9007 93.6611 78.723 93.6472Z" fill="black"/>
<path opacity="0.2" d="M80.5609 93.9177L80.4252 93.907C80.2475 93.8931 80.0922 94.0258 80.0783 94.2035L78.0698 119.838C78.0559 120.016 78.1886 120.171 78.3663 120.185L78.502 120.196C78.6796 120.21 78.8349 120.077 78.8489 119.899L80.8574 94.2645C80.8713 94.0869 80.7386 93.9316 80.5609 93.9177Z" fill="black"/>
<path opacity="0.2" d="M82.3998 94.028L82.264 94.0174C82.0864 94.0035 81.9311 94.1362 81.9172 94.3138L79.9087 119.949C79.8948 120.126 80.0275 120.282 80.2051 120.296L80.3409 120.306C80.5185 120.32 80.6738 120.187 80.6877 120.01L82.6962 94.3749C82.7102 94.1972 82.5774 94.0419 82.3998 94.028Z" fill="black"/>
<path opacity="0.2" d="M84.2328 94.1354L84.097 94.1248C83.9194 94.1109 83.7641 94.2436 83.7502 94.4213L81.7417 120.056C81.7278 120.234 81.8605 120.389 82.0381 120.403L82.1739 120.414C82.3515 120.428 82.5068 120.295 82.5207 120.117L84.5292 94.4823C84.5432 94.3047 84.4104 94.1494 84.2328 94.1354Z" fill="black"/>
</svg>
