<svg width="16" height="16" viewBox="0 0 16 16" fill="none" xmlns="http://www.w3.org/2000/svg">
<g clip-path="url(#clip0_1236_5762)">
<path d="M8.00005 12.1744C8.32651 12.1744 8.59116 11.9098 8.59116 11.5833C8.59116 11.2568 8.32651 10.9922 8.00005 10.9922C7.67358 10.9922 7.40894 11.2568 7.40894 11.5833C7.40894 11.9098 7.67358 12.1744 8.00005 12.1744Z" fill="#4581DC"/>
<path d="M7.99999 10.0503C7.88211 10.0503 7.76907 10.0035 7.68572 9.92017C7.60237 9.83682 7.55554 9.72378 7.55554 9.6059V4.27257C7.55554 4.1547 7.60237 4.04165 7.68572 3.9583C7.76907 3.87495 7.88211 3.82812 7.99999 3.82812C8.11786 3.82812 8.23091 3.87495 8.31426 3.9583C8.39761 4.04165 8.44443 4.1547 8.44443 4.27257V9.6059C8.44443 9.72378 8.39761 9.83682 8.31426 9.92017C8.23091 10.0035 8.11786 10.0503 7.99999 10.0503Z" fill="#4581DC"/>
<path d="M8.00003 15.1129C6.59359 15.1129 5.21872 14.6958 4.04931 13.9144C2.87989 13.133 1.96844 12.0224 1.43022 10.723C0.891997 9.42366 0.751173 7.99385 1.02556 6.61443C1.29994 5.23501 1.97721 3.96793 2.97172 2.97342C3.96622 1.97892 5.2333 1.30165 6.61272 1.02727C7.99214 0.752882 9.42195 0.893706 10.7213 1.43193C12.0207 1.97015 13.1313 2.8816 13.9127 4.05102C14.6941 5.22043 15.1111 6.59529 15.1111 8.00174C15.1111 9.88772 14.3619 11.6965 13.0283 13.0301C11.6948 14.3636 9.88601 15.1129 8.00003 15.1129ZM8.00003 1.77952C6.76939 1.77952 5.56639 2.14444 4.54315 2.82815C3.51991 3.51186 2.72239 4.48364 2.25145 5.6206C1.7805 6.75756 1.65728 8.00864 1.89737 9.21563C2.13745 10.4226 2.73006 11.5313 3.60025 12.4015C4.47045 13.2717 5.57914 13.8643 6.78614 14.1044C7.99313 14.3445 9.24421 14.2213 10.3812 13.7503C11.5181 13.2794 12.4899 12.4819 13.1736 11.4586C13.8573 10.4354 14.2223 9.23238 14.2223 8.00174C14.2223 6.3515 13.5667 4.76886 12.3998 3.60196C11.2329 2.43507 9.65027 1.77952 8.00003 1.77952Z" fill="#4581DC"/>
</g>
<defs>
<clipPath id="clip0_1236_5762">
<rect width="16" height="16" fill="white"/>
</clipPath>
</defs>
</svg>
