<svg width="26" height="26" viewBox="0 0 26 26" fill="none" xmlns="http://www.w3.org/2000/svg">
<rect x="0.36084" y="0.442383" width="25.2459" height="25.2459" rx="6" fill="#CEFAFF"/>
<rect width="17" height="17" transform="translate(6.36084 6.44238)" fill="#CEFAFF"/>
<path d="M11.7474 8.4633C11.7474 9.03249 12.2028 9.48785 12.772 9.48785C13.3483 9.48785 13.7965 9.03249 13.7894 8.4633C13.7894 7.887 13.3483 7.43164 12.772 7.43164C12.2028 7.43164 11.7474 7.887 11.7474 8.4633ZM9.98291 17.8693C9.98291 18.2179 10.232 18.4527 10.609 18.4527H15.1128C15.4899 18.4527 15.7389 18.2179 15.7389 17.8693C15.7389 17.5278 15.4899 17.2929 15.1128 17.2929H13.6827V11.8642C13.6827 11.48 13.4337 11.2239 13.0637 11.2239H10.8083C10.4383 11.2239 10.1892 11.4516 10.1892 11.7931C10.1892 12.1488 10.4383 12.3836 10.8083 12.3836H12.3664V17.2929H10.609C10.232 17.2929 9.98291 17.5278 9.98291 17.8693Z" fill="#4198FF"/>
</svg>
