<svg width="16" height="16" viewBox="0 0 16 16" fill="none" xmlns="http://www.w3.org/2000/svg">
<path d="M8 0C4.68625 0 2 2.68625 2 6C2 7.4195 2.6255 8.66775 3.31775 9.75L7.592 15.789C7.68575 15.9215 7.838 16 8 16C8.162 16 8.31425 15.9215 8.408 15.789L12.6823 9.75C13.3438 8.8595 14 7.4195 14 6C14 2.68625 11.3138 0 8 0ZM12.0218 9.75H12.0192L8 15.25L3.98075 9.75H3.97825C3.36725 8.86725 2.5 7.44975 2.5 6C2.5 2.9625 4.9625 0.5 8 0.5C11.0375 0.5 13.5 2.9625 13.5 6C13.5 7.44975 12.5703 8.94525 12.0218 9.75Z" fill="#A4A4A4"/>
<path d="M8 3.5C6.61925 3.5 5.5 4.6195 5.5 6C5.5 7.3805 6.61925 8.5 8 8.5C9.38075 8.5 10.5 7.3805 10.5 6C10.5 4.6195 9.38075 3.5 8 3.5ZM8 8C6.8955 8 6 7.1045 6 6C6 4.8955 6.8955 4 8 4C9.1045 4 10 4.8955 10 6C10 7.1045 9.1045 8 8 8Z" fill="#A4A4A4"/>
<path d="M8 2.5C6.067 2.5 4.5 4.067 4.5 6C4.5 7.933 6.067 9.5 8 9.5C9.933 9.5 11.5 7.933 11.5 6C11.5 4.067 9.933 2.5 8 2.5ZM8 9C6.34325 9 5 7.65675 5 6C5 4.34325 6.34325 3 8 3C9.65675 3 11 4.34325 11 6C11 7.65675 9.65675 9 8 9Z" fill="#A4A4A4"/>
</svg>
