<svg width="35" height="35" viewBox="0 0 35 35" fill="none" xmlns="http://www.w3.org/2000/svg">
<path d="M17.4997 9.16602C16.9228 9.16602 16.3589 9.33707 15.8793 9.65756C15.3996 9.97805 15.0258 10.4336 14.805 10.9665C14.5843 11.4995 14.5265 12.0859 14.6391 12.6517C14.7516 13.2175 15.0294 13.7372 15.4373 14.1451C15.8452 14.553 16.3649 14.8308 16.9307 14.9433C17.4964 15.0558 18.0829 14.9981 18.6158 14.7773C19.1488 14.5566 19.6043 14.1827 19.9248 13.7031C20.2453 13.2235 20.4163 12.6595 20.4163 12.0827C20.4163 11.3091 20.1091 10.5673 19.5621 10.0203C19.0151 9.47331 18.2732 9.16602 17.4997 9.16602ZM17.4997 14.166C17.0876 14.166 16.6848 14.0438 16.3422 13.8149C15.9996 13.586 15.7326 13.2606 15.5749 12.8799C15.4172 12.4993 15.376 12.0804 15.4564 11.6762C15.5368 11.2721 15.7352 10.9009 16.0265 10.6095C16.3179 10.3182 16.6891 10.1198 17.0932 10.0394C17.4974 9.95899 17.9163 10.0003 18.2969 10.1579C18.6776 10.3156 19.003 10.5826 19.2319 10.9252C19.4608 11.2678 19.583 11.6706 19.583 12.0827C19.5824 12.635 19.3627 13.1646 18.9721 13.5551C18.5816 13.9457 18.052 14.1654 17.4997 14.166Z" fill="#D1D1D1"/>
<path d="M14.375 14.2715C13.712 14.2715 13.0761 14.5349 12.6072 15.0037C12.1384 15.4726 11.875 16.1084 11.875 16.7715V21.3548C11.8753 21.5391 11.9369 21.7181 12.05 21.8636C12.1632 22.0091 12.3215 22.1129 12.5 22.1587V21.6326C12.5003 21.3511 12.5719 21.0742 12.7083 20.8279V16.7715C12.7088 16.3296 12.8846 15.906 13.197 15.5935C13.5095 15.2811 13.9331 15.1053 14.375 15.1048H15.2874C14.97 14.8719 14.6909 14.5907 14.4604 14.2715H14.375ZM23.125 21.3548V16.7715C23.125 16.1084 22.8616 15.4726 22.3928 15.0037C21.9239 14.5349 21.288 14.2715 20.625 14.2715H20.5396C20.3091 14.5907 20.03 14.8719 19.7126 15.1048H20.625C21.0669 15.1053 21.4905 15.2811 21.803 15.5935C22.1154 15.906 22.2912 16.3296 22.2917 16.7715V20.828C22.4281 21.0743 22.4997 21.3511 22.5 21.6326V22.1587C22.6785 22.1129 22.8368 22.0091 22.95 21.8636C23.0631 21.7181 23.1247 21.5391 23.125 21.3548Z" fill="#848484"/>
<path d="M21.6663 22.7437V21.6326C21.6663 21.4562 21.6104 21.2844 21.5065 21.1418C21.4027 20.9992 21.2563 20.8932 21.0884 20.8391C21.0586 20.7598 21.0263 20.6815 20.9912 20.6044C21.0717 20.4474 21.1002 20.269 21.0728 20.0947C21.0455 19.9205 20.9635 19.7594 20.8388 19.6347L20.0531 18.849C19.9284 18.7243 19.7674 18.6424 19.5932 18.6151C19.419 18.5877 19.2406 18.6163 19.0837 18.6967C19.0064 18.6616 18.9281 18.6292 18.8487 18.5994C18.7946 18.4315 18.6886 18.2851 18.5461 18.1813C18.4035 18.0774 18.2316 18.0215 18.0552 18.0215H16.9441C16.7677 18.0215 16.5959 18.0774 16.4533 18.1813C16.3107 18.2851 16.2048 18.4315 16.1506 18.5994C16.0712 18.6292 15.9929 18.6616 15.9157 18.6967C15.7588 18.6163 15.5804 18.5877 15.4062 18.615C15.232 18.6424 15.0709 18.7243 14.9462 18.849L14.1606 19.6347C14.0358 19.7594 13.9539 19.9205 13.9265 20.0947C13.8991 20.269 13.9277 20.4474 14.0081 20.6044C13.9731 20.6815 13.9407 20.7598 13.9109 20.8391C13.7431 20.8932 13.5967 20.9992 13.4928 21.1418C13.389 21.2843 13.333 21.4562 13.333 21.6326V22.7437C13.333 22.9201 13.389 23.0919 13.4928 23.2345C13.5967 23.3771 13.7431 23.4831 13.9109 23.5372C13.9407 23.6165 13.9731 23.6948 14.0081 23.7719C13.9277 23.9289 13.8991 24.1073 13.9265 24.2816C13.9539 24.4558 14.0358 24.6169 14.1606 24.7416L14.9462 25.5273C15.071 25.6519 15.232 25.7338 15.4063 25.7612C15.5805 25.7886 15.7589 25.7601 15.9159 25.6797C15.9931 25.7147 16.0713 25.7471 16.1507 25.7769C16.2048 25.9448 16.3107 26.0912 16.4533 26.195C16.5959 26.2989 16.7677 26.3548 16.9441 26.3548H18.0552C18.2316 26.3548 18.4035 26.2989 18.5461 26.195C18.6886 26.0912 18.7946 25.9448 18.8487 25.7769C18.928 25.7471 19.0063 25.7147 19.0834 25.6797C19.2404 25.7601 19.4188 25.7886 19.5931 25.7612C19.7673 25.7338 19.9284 25.6519 20.0531 25.5273L20.8388 24.7416C20.9635 24.6169 21.0455 24.4558 21.0728 24.2816C21.1002 24.1073 21.0716 23.9289 20.9912 23.7719C21.0262 23.6948 21.0586 23.6165 21.0884 23.5372C21.2563 23.4831 21.4027 23.3771 21.5065 23.2345C21.6104 23.0919 21.6663 22.9201 21.6663 22.7437ZM20.833 22.7437H20.4475C20.3713 23.151 20.2111 23.5379 19.9771 23.8799L20.2495 24.1523L19.4639 24.938L19.1914 24.6656C18.8495 24.8996 18.4625 25.0598 18.0552 25.136V25.5215H16.9441V25.136C16.5368 25.0598 16.1499 24.8996 15.8079 24.6656L15.5355 24.938L14.7498 24.1523L15.0223 23.8799C14.7883 23.5379 14.6281 23.151 14.5519 22.7437H14.1663V21.6326H14.5519C14.628 21.2253 14.7883 20.8384 15.0223 20.4964L14.7498 20.224L15.5355 19.4383L15.8079 19.7108C16.1499 19.4767 16.5368 19.3165 16.9441 19.2403V18.8548H18.0552V19.2403C18.4625 19.3165 18.8495 19.4767 19.1914 19.7107L19.4639 19.4383L20.2495 20.224L19.9771 20.4964C20.2111 20.8384 20.3713 21.2253 20.4475 21.6326H20.833V22.7437Z" fill="#D1D1D1"/>
<path d="M17.5003 20.1035C17.0883 20.1035 16.6855 20.2257 16.3429 20.4546C16.0003 20.6835 15.7333 21.0089 15.5756 21.3896C15.4179 21.7703 15.3766 22.1892 15.457 22.5933C15.5374 22.9974 15.7358 23.3686 16.0272 23.66C16.3185 23.9513 16.6898 24.1498 17.0939 24.2302C17.498 24.3105 17.9169 24.2693 18.2976 24.1116C18.6783 23.9539 19.0036 23.6869 19.2326 23.3443C19.4615 23.0017 19.5837 22.5989 19.5837 22.1868C19.583 21.6345 19.3633 21.105 18.9728 20.7144C18.5822 20.3238 18.0527 20.1041 17.5003 20.1035ZM17.5003 23.4368C17.2531 23.4368 17.0114 23.3635 16.8059 23.2262C16.6003 23.0888 16.4401 22.8936 16.3455 22.6652C16.2509 22.4368 16.2261 22.1855 16.2743 21.943C16.3226 21.7005 16.4416 21.4778 16.6164 21.303C16.7913 21.1282 17.014 21.0091 17.2565 20.9609C17.4989 20.9126 17.7503 20.9374 17.9787 21.032C18.2071 21.1266 18.4023 21.2868 18.5397 21.4924C18.677 21.6979 18.7503 21.9396 18.7503 22.1868C18.7503 22.5184 18.6186 22.8363 18.3842 23.0707C18.1498 23.3052 17.8318 23.4368 17.5003 23.4368Z" fill="#848484"/>
<path d="M31.4002 30.0007H30.8316C30.8319 29.8779 30.805 29.7566 30.7529 29.6455C30.7008 29.5344 30.6248 29.4361 30.5303 29.3579L28.0053 27.2745C27.9734 27.2489 27.9397 27.2257 27.9044 27.205C27.9114 27.165 27.9155 27.1246 27.9166 27.084V16.6673C27.9166 16.4463 27.8288 16.2343 27.6725 16.0781C27.5162 15.9218 27.3043 15.834 27.0833 15.834H23.8217C23.9007 16.105 23.9448 16.3851 23.953 16.6673H27.0833V27.084H7.91659V16.6673H11.0469C11.055 16.3851 11.0991 16.105 11.1781 15.834H7.91659C7.69558 15.834 7.48361 15.9218 7.32733 16.0781C7.17105 16.2343 7.08326 16.4463 7.08326 16.6673V27.084C7.08434 27.1246 7.08841 27.165 7.09545 27.205C7.06016 27.2257 7.02645 27.2489 6.99458 27.2745L4.46958 29.3579C4.37505 29.4361 4.29901 29.5344 4.24692 29.6455C4.19482 29.7566 4.16796 29.8779 4.16826 30.0007H3.59965C3.54037 29.9929 3.48013 29.9979 3.42293 30.0153C3.36574 30.0327 3.31292 30.0621 3.26799 30.1015C3.22307 30.141 3.18707 30.1895 3.16241 30.244C3.13776 30.2984 3.125 30.3575 3.125 30.4173C3.125 30.4771 3.13776 30.5362 3.16241 30.5906C3.18707 30.6451 3.22307 30.6937 3.26799 30.7331C3.31292 30.7725 3.36574 30.8019 3.42293 30.8193C3.48013 30.8367 3.54037 30.8417 3.59965 30.834H31.4002C31.4595 30.8417 31.5197 30.8367 31.5769 30.8193C31.6341 30.8019 31.6869 30.7725 31.7319 30.7331C31.7768 30.6937 31.8128 30.6451 31.8374 30.5906C31.8621 30.5362 31.8748 30.4771 31.8748 30.4173C31.8748 30.3575 31.8621 30.2984 31.8374 30.244C31.8128 30.1895 31.7768 30.141 31.7319 30.1015C31.6869 30.0621 31.6341 30.0327 31.5769 30.0153C31.5197 29.9979 31.4595 29.9929 31.4002 30.0007ZM4.99992 30.0007L7.52492 27.9173H27.4749L29.9999 30.0007H4.99992Z" fill="#848484"/>
</svg>
