<svg width="12" height="13" viewBox="0 0 12 13" fill="none" xmlns="http://www.w3.org/2000/svg">
<path d="M6.10678 -0.00335419C6.65253 0.0276458 7.10678 0.287896 7.38078 0.816896L11.8648 9.8689C12.2995 10.7839 11.6263 12.0151 10.5215 12.0329H1.49178C0.486281 12.0169 -0.338719 10.8751 0.153781 9.8589L4.72153 0.807146C4.80703 0.644646 4.84603 0.597646 4.91978 0.512396C5.21628 0.168646 5.54053 -0.0153542 6.10678 -0.00335419ZM6.03303 0.995896C5.86128 1.0044 5.70403 1.10065 5.61828 1.25015C4.04028 4.2449 2.51903 7.2704 1.04303 10.3169C0.906531 10.6231 1.14078 11.0161 1.48353 11.0326C4.49853 11.0814 7.51478 11.0814 10.5298 11.0326C10.861 11.0166 11.11 10.6366 10.972 10.3201C9.52378 7.27415 8.03078 4.24865 6.48053 1.2534C6.38903 1.09065 6.25478 0.992896 6.03303 0.995896Z" fill="#B06E22"/>
<path d="M6.40781 8.1435H5.57081L5.47881 4.03125H6.50381L6.40781 8.1435ZM5.45081 9.401C5.45081 9.24875 5.50006 9.12275 5.59881 9.0225C5.69781 8.9225 5.83256 8.87225 6.00331 8.87225C6.17431 8.87225 6.30906 8.9225 6.40781 9.0225C6.50656 9.12275 6.55606 9.24875 6.55606 9.401C6.55606 9.54775 6.50781 9.6705 6.41181 9.76925C6.31556 9.868 6.17956 9.9175 6.00331 9.9175C5.82706 9.9175 5.69106 9.868 5.59481 9.76925C5.49881 9.6705 5.45081 9.54775 5.45081 9.401Z" fill="#B06E22"/>
</svg>
